<svg width="242" height="140" viewBox="0 0 242 140" fill="none" xmlns="http://www.w3.org/2000/svg">
<path d="M0 8C0 3.58172 3.58172 0 8 0H234C238.418 0 242 3.58172 242 8V140H0V8Z" fill="#DDE3C2"/>
<g clip-path="url(#clip0_1_634)">
<path d="M191 140H51V1.52588e-05H191V140Z" fill="#DDE3C2"/>
<path d="M59.989 116.669C76.0668 116.669 92.1446 116.669 108.222 116.669C124.218 116.669 140.214 116.669 156.21 116.669C165.233 116.669 174.256 116.669 183.28 116.669C183.505 116.669 183.505 116.319 183.28 116.319C167.202 116.319 151.124 116.319 135.046 116.319C119.05 116.319 103.055 116.319 87.0587 116.319C78.0355 116.319 69.0123 116.319 59.989 116.319C59.7638 116.319 59.7634 116.669 59.989 116.669Z" fill="#1B1C1D"/>
<path d="M78.2231 121.822C79.8103 123.42 80.9603 125.189 84.4441 126.951C96.978 133.293 106.675 133.379 121.037 133.491C135.398 133.603 156.423 128.103 165.805 120.005C159.624 120.357 153.442 120.708 147.261 121.059C124.096 122.374 100.796 123.689 77.6676 122.056" fill="#CDD3B1"/>
<path d="M132.801 35.3365C138.507 29.8597 145.352 21.9601 149.962 15.533" stroke="#3D907E" stroke-width="1.33333" stroke-miterlimit="10" stroke-linecap="round" stroke-linejoin="round"/>
<path d="M144.376 22.5683L144.677 16.62" stroke="#3D907E" stroke-width="1.33333" stroke-miterlimit="10" stroke-linecap="round" stroke-linejoin="round"/>
<path d="M148.093 23.851C144.911 24.9023 145.569 24.568 142.276 25.1949" stroke="#3D907E" stroke-width="1.33333" stroke-miterlimit="10" stroke-linecap="round" stroke-linejoin="round"/>
<path d="M150.44 13.7144C149.68 13.4915 148.882 13.9272 148.659 14.6877C148.436 15.4482 148.872 16.2456 149.632 16.4685C150.393 16.6916 151.19 16.256 151.413 15.4955C151.636 14.735 151.201 13.9376 150.44 13.7144Z" fill="#F8A264"/>
<path d="M148.371 22.3476C147.565 22.1113 146.72 22.573 146.484 23.3789C146.248 24.185 146.709 25.03 147.515 25.2663C148.321 25.5027 149.166 25.0409 149.403 24.2351C149.639 23.429 149.177 22.5842 148.371 22.3476Z" fill="#F8A264"/>
<path d="M145.453 15.3174C144.865 14.9503 144.09 15.1298 143.724 15.7178C143.357 16.3061 143.536 17.0806 144.124 17.4474C144.713 17.8145 145.487 17.635 145.854 17.0467C146.221 16.4584 146.041 15.6842 145.453 15.3174Z" fill="#F8A264"/>
<path d="M148.037 66.4239C150.138 65.3086 152.73 65.1661 154.94 66.0447C155.382 66.2203 155.817 66.4398 156.153 66.7755C156.489 67.1113 156.718 67.5797 156.676 68.0529C153.753 68.7285 150.57 68.2046 148.018 66.6269" fill="#3D907E"/>
<path d="M151.311 60.2459C148.878 63.2968 147.084 66.8195 146.057 70.5849C145.998 70.8025 146.335 70.8954 146.395 70.6779C147.405 66.9737 149.164 63.4956 151.559 60.4934C151.698 60.319 151.451 60.0698 151.311 60.2459Z" fill="#3D907E"/>
<path d="M151.865 56.1425C151.685 57.6167 151.864 58.8518 152.266 58.9008C152.667 58.9498 153.138 57.7942 153.318 56.32C153.498 54.8456 153.319 53.6108 152.917 53.5618C152.516 53.5128 152.045 54.6683 151.865 56.1425Z" fill="white"/>
<path d="M153.298 56.3119C152.405 57.4986 151.943 58.6578 152.266 58.9008C152.588 59.1436 153.574 58.3786 154.467 57.192C155.36 56.005 155.822 54.8461 155.5 54.6031C155.177 54.36 154.191 55.125 153.298 56.3119Z" fill="white"/>
<path d="M154.454 57.1749C153.087 57.7562 152.107 58.5287 152.266 58.9008C152.424 59.2726 153.66 59.103 155.027 58.5217C156.394 57.9404 157.373 57.1676 157.215 56.7958C157.057 56.4239 155.821 56.5936 154.454 57.1749Z" fill="white"/>
<path d="M155.024 58.5001C153.549 58.3201 152.315 58.4996 152.266 58.9008C152.217 59.3018 153.372 59.773 154.846 59.953C156.321 60.1331 157.556 59.9539 157.604 59.5526C157.653 59.1514 156.498 58.6802 155.024 58.5001Z" fill="white"/>
<path d="M154.855 59.9329C153.668 59.0399 152.509 58.5777 152.266 58.9008C152.023 59.2236 152.788 60.2095 153.974 61.1024C155.161 61.9953 156.32 62.4576 156.563 62.1348C156.806 61.8117 156.041 60.8261 154.855 59.9329Z" fill="white"/>
<path d="M153.992 61.089C153.41 59.7223 152.637 58.7426 152.266 58.9008C151.894 59.0587 152.063 60.2952 152.644 61.6619C153.226 63.0286 153.999 64.0086 154.37 63.8504C154.743 63.6922 154.573 62.456 153.992 61.089Z" fill="white"/>
<path d="M152.666 61.6588C152.846 60.1846 152.667 58.9498 152.266 58.9008C151.864 58.8518 151.393 60.0071 151.213 61.4816C151.033 62.9558 151.213 64.1906 151.614 64.2396C152.015 64.2886 152.486 63.133 152.666 61.6588Z" fill="white"/>
<path d="M151.233 61.4897C152.126 60.3028 152.588 59.1436 152.266 58.9008C151.943 58.6578 150.957 59.4227 150.064 60.6096C149.171 61.7963 148.709 62.9555 149.032 63.1985C149.354 63.4413 150.34 62.6763 151.233 61.4897Z" fill="white"/>
<path d="M150.077 60.6267C151.444 60.0455 152.424 59.2727 152.266 58.9008C152.107 58.5287 150.871 58.6984 149.504 59.2797C148.138 59.8609 147.158 60.6337 147.316 61.0056C147.474 61.3777 148.71 61.2077 150.077 60.6267Z" fill="white"/>
<path d="M149.507 59.3012C150.982 59.4812 152.217 59.3018 152.266 58.9008C152.315 58.4996 151.159 58.0283 149.685 57.8483C148.21 57.6683 146.976 57.8477 146.927 58.2487C146.878 58.6499 148.033 59.1212 149.507 59.3012Z" fill="white"/>
<path d="M149.677 57.8684C150.863 58.7614 152.023 59.2237 152.266 58.9008C152.509 58.5777 151.743 57.5921 150.557 56.6989C149.37 55.806 148.211 55.3437 147.968 55.6668C147.725 55.9896 148.49 56.9755 149.677 57.8684Z" fill="white"/>
<path d="M150.54 56.7123C151.121 58.079 151.894 59.0587 152.266 58.9008C152.637 58.7426 152.468 57.5064 151.887 56.1394C151.305 54.7728 150.533 53.7931 150.161 53.951C149.789 54.1092 149.958 55.3454 150.54 56.7123Z" fill="white"/>
<path d="M151.324 59.0335C151.398 59.5535 151.879 59.9155 152.399 59.8421C152.919 59.7688 153.28 59.2877 153.207 58.7678C153.134 58.2478 152.653 57.8858 152.133 57.9591C151.613 58.0328 151.251 58.5138 151.324 59.0335Z" fill="#F8A264"/>
<path d="M147.485 42.9556C147.384 41.3417 147.605 39.7082 148.132 38.1794C148.358 37.5234 148.658 36.8614 149.194 36.4207C149.73 35.98 150.557 35.8274 151.119 36.2337C151.592 36.5753 151.764 37.2229 151.682 37.8003C151.601 38.3779 151.309 38.9021 151.006 39.4005C149.943 41.1502 148.682 42.7697 147.423 44.3848" fill="#F8A264"/>
<path d="M156.37 44.004C156.231 43.4375 155.695 43.0354 155.13 42.894C154.564 42.7524 153.968 42.826 153.393 42.9192C151.372 43.2468 149.397 43.8077 147.428 44.3671L148.775 44.8462C150.233 45.5465 151.83 45.9553 153.444 46.0415C154.137 46.0785 154.864 46.0491 155.474 45.7181C156.083 45.3869 156.535 44.6779 156.37 44.004Z" fill="#F8A264"/>
<path d="M147.423 44.3848C148.092 43.426 149.074 42.1862 149.77 41.2043C150.466 40.2226 151.352 39.3495 152.47 38.9052C153.035 38.6809 153.708 38.6056 154.227 38.9203C155.029 39.4058 155.084 40.6266 154.583 41.4196C154.083 42.2123 153.205 42.6731 152.36 43.0789C150.714 43.869 149.248 44.3276 147.423 44.3848Z" fill="#F8A264"/>
<path d="M150.637 44.6875C150.576 44.5589 150.508 44.4094 150.124 44.3181C149.358 44.1364 149.044 44.095 148.371 44.0339C148.918 43.9925 149.519 43.7245 150.024 43.5131C150.243 43.4221 150.545 43.006 150.497 42.7742C150.447 42.534 150.128 42.4788 149.884 42.5071C149.131 42.5947 148.417 42.9825 147.933 43.5663C148.259 42.9559 148.357 42.2265 148.204 41.5512C148.166 41.3857 148.093 41.2012 147.931 41.1491C147.801 41.1068 147.654 41.1726 147.564 41.2762C147.475 41.3798 147.431 41.5145 147.394 41.6466C147.149 42.5373 147.165 43.4977 147.438 44.38C148.365 44.8863 148.589 45.0554 150.167 45.4124C150.281 45.4381 150.456 45.402 150.595 45.2069C150.677 45.0912 150.697 44.8157 150.637 44.6875Z" fill="#3D907E"/>
<path d="M133.879 61.3435C134.15 59.8323 135.569 52.9833 142.687 47.3275C144.878 45.5865 147.684 43.9564 148.454 44.0594" stroke="#3D907E" stroke-width="1.33333" stroke-miterlimit="10" stroke-linecap="round" stroke-linejoin="round"/>
<path d="M143.8 46.4487C145.576 50.5423 150.273 53.0779 154.884 52.4328C153.54 48.1908 148.703 45.7288 143.8 46.4487Z" fill="#3D907E"/>
<path d="M105.11 55.0906C102.115 47.77 97.2865 38.4995 93.005 31.8492" stroke="#3D907E" stroke-width="1.33333" stroke-miterlimit="10" stroke-linecap="round" stroke-linejoin="round"/>
<path d="M97.4929 39.6315L92.0721 37.1633" stroke="#3D907E" stroke-width="1.33333" stroke-miterlimit="10" stroke-linecap="round" stroke-linejoin="round"/>
<path d="M100.053 36.6461C99.86 39.9924 99.7914 39.2571 99.1634 42.5496" stroke="#3D907E" stroke-width="1.33333" stroke-miterlimit="10" stroke-linecap="round" stroke-linejoin="round"/>
<path d="M91.4897 30.7359C91.0025 31.3611 91.1145 32.2627 91.7397 32.75C92.3647 33.2369 93.2666 33.1252 93.7535 32.4999C94.2407 31.8747 94.1287 30.9731 93.5037 30.4859C92.8785 29.9989 91.9769 30.1107 91.4897 30.7359Z" fill="#F8A264"/>
<path d="M98.7571 35.8347C98.2408 36.4972 98.3595 37.4528 99.022 37.9688C99.6844 38.4852 100.64 38.3664 101.156 37.704C101.673 37.0415 101.554 36.0858 100.892 35.5698C100.229 35.0535 99.2734 35.1719 98.7571 35.8347Z" fill="#F8A264"/>
<path d="M91.1461 35.9629C90.5887 36.3748 90.4705 37.1608 90.8827 37.7185C91.2948 38.276 92.0808 38.3939 92.6382 37.982C93.1957 37.5698 93.3139 36.7839 92.9017 36.2264C92.4896 35.6686 91.7036 35.5508 91.1461 35.9629Z" fill="#F8A264"/>
<path d="M150.174 101.225C157.408 98.028 166.541 92.9432 173.069 88.478" stroke="#3D907E" stroke-width="1.33333" stroke-miterlimit="10" stroke-linecap="round" stroke-linejoin="round"/>
<path d="M165.415 93.1809L167.731 87.6938" stroke="#3D907E" stroke-width="1.33333" stroke-miterlimit="10" stroke-linecap="round" stroke-linejoin="round"/>
<path d="M168.47 95.6567C165.12 95.5573 165.853 95.4683 162.544 94.932" stroke="#3D907E" stroke-width="1.33333" stroke-miterlimit="10" stroke-linecap="round" stroke-linejoin="round"/>
<path d="M174.139 86.9325C173.501 86.4629 172.603 86.5998 172.133 87.2385C171.664 87.8769 171.801 88.7751 172.439 89.2447C173.078 89.7143 173.976 89.5771 174.446 88.9387C174.915 88.3003 174.778 87.402 174.139 86.9325Z" fill="#F8A264"/>
<path d="M169.245 94.339C168.569 93.8414 167.617 93.9868 167.119 94.6632C166.622 95.34 166.767 96.2917 167.443 96.7896C168.12 97.2871 169.072 97.1418 169.569 96.4651C170.067 95.7886 169.922 94.8366 169.245 94.339Z" fill="#F8A264"/>
<path d="M168.905 86.7345C168.478 86.1888 167.689 86.0927 167.143 86.52C166.597 86.9476 166.501 87.7366 166.928 88.2823C167.356 88.8283 168.145 88.9244 168.691 88.4968C169.236 88.0695 169.332 87.2805 168.905 86.7345Z" fill="#F8A264"/>
<path d="M92.8748 91.3175C86.9218 86.1098 78.4565 79.9781 71.6524 75.9452" stroke="#3D907E" stroke-width="1.33333" stroke-miterlimit="10" stroke-linecap="round" stroke-linejoin="round"/>
<path d="M79.1473 80.8984L73.1953 81.1154" stroke="#3D907E" stroke-width="1.33333" stroke-miterlimit="10" stroke-linecap="round" stroke-linejoin="round"/>
<path d="M69.7992 75.6274C69.6432 76.4044 70.1466 77.161 70.9236 77.317C71.7007 77.4729 72.4571 76.9695 72.6131 76.1925C72.7691 75.4155 72.2657 74.6592 71.4887 74.5032C70.7117 74.347 69.9552 74.8504 69.7992 75.6274Z" fill="#F8A264"/>
<path d="M71.83 80.456C71.5156 81.074 71.7617 81.8297 72.3796 82.1442C72.9976 82.4583 73.7533 82.2122 74.0677 81.5945C74.3821 80.9766 74.1359 80.2208 73.518 79.9064C72.9001 79.592 72.1443 79.8381 71.83 80.456Z" fill="#F8A264"/>
<path d="M117.252 20.6668C116.025 20.1889 114.894 19.4662 113.945 18.5534C113.537 18.1617 113.151 17.7131 113.009 17.166C112.867 16.6191 113.037 15.9558 113.53 15.6795C113.945 15.4471 114.482 15.5423 114.881 15.8001C115.279 16.0583 115.567 16.4534 115.831 16.8479C116.76 18.2325 117.525 19.7196 118.287 21.2025" fill="#F8A264"/>
<path d="M121.07 14.4612C120.604 14.3699 120.123 14.6281 119.825 14.9977C119.527 15.3673 119.377 15.8324 119.249 16.2896C118.799 17.8951 118.537 19.5466 118.275 21.1932L119.091 20.3614C120.108 19.5242 120.957 18.4845 121.573 17.3208C121.838 16.8216 122.065 16.2748 122.029 15.7108C121.994 15.1469 121.625 14.5701 121.07 14.4612Z" fill="#F8A264"/>
<path d="M118.287 21.2025C117.808 20.3795 117.228 19.2293 116.741 18.3789C116.254 17.5283 115.912 16.5749 115.967 15.5966C115.994 15.1027 116.169 14.5796 116.58 14.3035C117.213 13.8771 118.134 14.2545 118.548 14.896C118.962 15.5378 119.002 16.3439 119.013 17.1077C119.033 18.5943 118.869 19.8347 118.287 21.2025Z" fill="#F8A264"/>
<path d="M119.611 18.9319C119.496 18.9328 119.362 18.9311 119.163 19.1842C118.766 19.6874 118.628 19.9055 118.353 20.3815C118.509 19.9637 118.517 19.4275 118.534 18.9818C118.541 18.7894 118.337 18.4235 118.15 18.3798C117.955 18.3344 117.805 18.5509 117.743 18.7407C117.549 19.3273 117.591 19.9881 117.857 20.5456C117.518 20.0953 117.012 19.7728 116.461 19.6552C116.325 19.6263 116.164 19.6171 116.07 19.7187C115.994 19.8005 115.993 19.9315 116.038 20.0332C116.084 20.1351 116.169 20.2138 116.254 20.286C116.828 20.7721 117.543 21.0896 118.288 21.1896C118.98 20.678 119.182 20.5708 119.986 19.5269C120.044 19.4516 120.077 19.3099 119.981 19.1403C119.923 19.0397 119.727 18.9308 119.611 18.9319Z" fill="#3D907E"/>
<path d="M112.442 46.8196C111.646 37.7793 108.544 29.2295 103.627 21.9775" stroke="#3D907E" stroke-miterlimit="10"/>
<path d="M101.213 18.6959C101.691 26.8988 105.685 27.4067 108.038 30.4192C109.322 32.093 108.742 32.3778 108.429 30.2478C107.912 26.9172 108.974 21.2167 101.213 18.6959Z" fill="#3D907E"/>
<path d="M110.005 34.9742C109.082 32.0538 104.661 27.634 99.0634 28.6118C99.2233 29.6394 100.361 30.6286 101.331 31.1472C105.713 33.5034 108.878 31.7593 110.005 34.9742Z" fill="#3D907E"/>
<path d="M110.005 34.9742C109.017 31.8671 109.187 25.1896 111.843 21.1333C113.458 22.5716 114.295 26.8811 110.476 31.7671C109.621 32.8507 109.85 34.5327 110.005 34.9742Z" fill="#3D907E"/>
<path d="M111.589 40.9192C110.874 37.4718 106.778 33.0078 101.46 33.3222C101.464 33.9811 102.018 34.8074 102.469 35.299C105.667 38.6464 110.832 37.4618 111.589 40.9192Z" fill="#3D907E"/>
<path d="M111.589 40.9192C110.977 37.9924 111.829 31.2158 115.026 27.3902C115.406 27.8384 115.891 28.9288 115.949 30.1706C116.328 35.805 110.811 37.3643 111.589 40.9192Z" fill="#3D907E"/>
<path d="M100.386 86.8907C95.0434 80.3975 88.1958 75.4863 80.64 72.518" stroke="#3D907E" stroke-miterlimit="10"/>
<path d="M77.076 71.274C81.7364 77.2937 85.0555 75.5905 88.4315 76.6612C90.2893 77.2683 89.995 77.7896 88.6409 76.3252C86.5012 74.0505 84.3281 69.1371 77.076 71.274Z" fill="#3D907E"/>
<path d="M92.3204 79.1126C90.0855 77.3637 84.3914 76.3006 80.6251 79.9792C81.2854 80.6809 82.6733 80.841 83.6864 80.7293C88.2697 80.236 89.775 77.2456 92.3204 79.1126Z" fill="#3D907E"/>
<path d="M92.3204 79.1126C89.9376 77.2551 86.5715 72.0619 86.4771 67.5707C88.4648 67.8244 91.3614 70.6799 91.0008 76.4148C90.9143 77.6908 91.9707 78.8561 92.3204 79.1126Z" fill="#3D907E"/>
<path d="M96.6445 82.8271C94.2925 80.5666 88.8238 79.2994 84.9234 82.3248C85.272 82.826 86.128 83.1676 86.7302 83.307C90.9272 84.1912 94.255 80.5809 96.6445 82.8271Z" fill="#3D907E"/>
<path d="M96.6445 82.8271C94.6433 80.9108 91.7464 75.2847 92.1872 70.6863C92.7116 70.8302 93.6535 71.4095 94.3485 72.3282C97.5884 76.4366 94.1875 80.5179 96.6445 82.8271Z" fill="#3D907E"/>
<path d="M148.541 87.6162C153.883 81.123 160.731 76.2121 168.286 73.2438" stroke="#3D907E" stroke-miterlimit="10"/>
<path d="M171.85 71.9995C167.19 78.0192 163.871 76.3159 160.495 77.3867C158.637 77.9937 158.931 78.5151 160.285 77.0507C162.425 74.7759 164.598 69.8625 171.85 71.9995Z" fill="#3D907E"/>
<path d="M156.606 79.8381C158.841 78.0892 164.535 77.0263 168.301 80.7047C167.641 81.4064 166.253 81.5665 165.24 81.4548C160.657 80.9614 159.151 77.971 156.606 79.8381Z" fill="#3D907E"/>
<path d="M156.606 79.8381C158.989 77.9806 162.355 72.7874 162.449 68.2962C160.461 68.5501 157.565 71.4053 157.926 77.1403C158.012 78.4162 156.956 79.5816 156.606 79.8381Z" fill="#3D907E"/>
<path d="M152.282 83.5526C154.634 81.2921 160.103 80.0249 164.003 83.0502C163.654 83.5514 162.798 83.893 162.196 84.0325C157.999 84.9167 154.671 81.3064 152.282 83.5526Z" fill="#3D907E"/>
<path d="M152.282 83.5526C154.283 81.6362 157.18 76.0102 156.739 71.4118C156.215 71.5557 155.273 72.1353 154.578 73.0537C151.338 77.1621 154.739 81.2434 152.282 83.5526Z" fill="#3D907E"/>
<path d="M102.267 43.9978C101.526 46.2134 101.415 48.1726 102.018 48.3742C102.621 48.5755 103.709 46.9428 104.45 44.7275C105.19 42.5121 105.302 40.553 104.699 40.3514C104.096 40.1498 103.007 41.7824 102.267 43.9978Z" fill="white"/>
<path d="M104.421 44.7087C102.673 46.2571 101.596 47.8982 102.018 48.3742C102.439 48.8499 104.198 47.9805 105.947 46.4321C107.696 44.8837 108.772 43.2429 108.351 42.7669C107.93 42.2909 106.17 43.1603 104.421 44.7087Z" fill="white"/>
<path d="M105.932 46.4016C103.643 46.8681 101.891 47.7512 102.018 48.3742C102.145 48.9969 104.103 49.1238 106.392 48.6573C108.681 48.1908 110.433 47.3077 110.306 46.685C110.179 46.062 108.221 45.9351 105.932 46.4016Z" fill="white"/>
<path d="M106.394 48.6231C104.178 47.8828 102.219 47.7711 102.018 48.3742C101.816 48.977 103.449 50.066 105.664 50.8063C107.879 51.5469 109.839 51.6583 110.04 51.0555C110.242 50.4526 108.609 49.3637 106.394 48.6231Z" fill="white"/>
<path d="M105.683 50.778C104.134 49.0288 102.493 47.9528 102.018 48.3742C101.542 48.7953 102.411 50.5548 103.959 52.3037C105.508 54.0526 107.149 55.1289 107.625 54.7075C108.101 54.2861 107.231 52.5269 105.683 50.778Z" fill="white"/>
<path d="M103.99 52.2886C103.524 49.9996 102.64 48.2471 102.018 48.3742C101.395 48.501 101.268 50.4594 101.734 52.7481C102.201 55.0371 103.084 56.7896 103.707 56.6627C104.33 56.5356 104.456 54.5773 103.99 52.2886Z" fill="white"/>
<path d="M101.768 52.7503C102.509 50.5349 102.621 48.5755 102.018 48.3742C101.415 48.1726 100.326 49.8053 99.5853 52.0206C98.845 54.236 98.7333 56.1954 99.3361 56.3967C99.939 56.5983 101.028 54.9657 101.768 52.7503Z" fill="white"/>
<path d="M99.6139 52.0394C101.363 50.491 102.439 48.8499 102.018 48.3742C101.596 47.8982 99.8368 48.7676 98.0879 50.316C96.339 51.8644 95.2627 53.5055 95.6841 53.9812C96.1055 54.4572 97.8647 53.5878 99.6139 52.0394Z" fill="white"/>
<path d="M98.1033 50.3465C100.392 49.88 102.145 48.9969 102.018 48.3742C101.891 47.7512 99.9322 47.6244 97.6435 48.0908C95.3545 48.5573 93.602 49.4404 93.7291 50.0634C93.8559 50.6862 95.8143 50.813 98.1033 50.3465Z" fill="white"/>
<path d="M97.6413 48.125C99.8569 48.8653 101.816 48.977 102.018 48.3742C102.219 47.7711 100.587 46.6821 98.371 45.9418C96.1556 45.2015 94.1964 45.0898 93.9948 45.6926C93.7935 46.2955 95.4259 47.3847 97.6413 48.125Z" fill="white"/>
<path d="M98.3522 45.9701C99.9006 47.7193 101.542 48.7953 102.018 48.3742C102.493 47.9528 101.624 46.1933 100.076 44.4444C98.5275 42.6955 96.8864 41.6192 96.4104 42.0406C95.9344 42.462 96.8038 44.2212 98.3522 45.9701Z" fill="white"/>
<path d="M100.045 44.4595C100.512 46.7485 101.395 48.501 102.018 48.3742C102.64 48.2471 102.767 46.2888 102.301 44C101.834 41.711 100.951 39.9585 100.328 40.0856C99.7054 40.2125 99.5789 42.1708 100.045 44.4595Z" fill="white"/>
<path d="M100.525 48.2832C100.475 49.1075 101.103 49.8165 101.927 49.8666C102.751 49.9167 103.46 49.2892 103.51 48.4649C103.56 47.6406 102.933 46.9316 102.108 46.8815C101.284 46.8314 100.575 47.4589 100.525 48.2832Z" fill="#F8A264"/>
<path d="M80.2311 86.5595C79.4908 88.7748 79.3794 90.7343 79.9822 90.9356C80.5851 91.1372 81.674 89.5045 82.4143 87.2892C83.1549 85.0738 83.2663 83.1144 82.6635 82.913C82.0607 82.7114 80.9717 84.3441 80.2311 86.5595Z" fill="white"/>
<path d="M82.386 87.2704C80.6372 88.8188 79.5608 90.4596 79.9822 90.9356C80.4036 91.4116 82.1629 90.5422 83.9118 88.9938C85.6606 87.4454 86.737 85.8043 86.3156 85.3283C85.8942 84.8526 84.1349 85.722 82.386 87.2704Z" fill="white"/>
<path d="M83.8966 88.9633C81.6076 89.4298 79.8551 90.3129 79.9822 90.9356C80.1091 91.5586 82.0674 91.6852 84.3564 91.2187C86.6451 90.7522 88.3976 89.8694 88.2708 89.2464C88.1437 88.6236 86.1854 88.4968 83.8966 88.9633Z" fill="white"/>
<path d="M84.3583 91.1848C82.143 90.4442 80.1835 90.3327 79.9822 90.9356C79.7806 91.5384 81.4133 92.6274 83.6287 93.368C85.844 94.1083 87.8035 94.22 88.0048 93.6169C88.2064 93.014 86.5737 91.9251 84.3583 91.1848Z" fill="white"/>
<path d="M83.6474 93.3394C82.099 91.5905 80.4579 90.5142 79.9822 90.9356C79.5062 91.357 80.3756 93.1163 81.924 94.8654C83.4724 96.6143 85.1135 97.6906 85.5892 97.2692C86.0652 96.8478 85.1958 95.0883 83.6474 93.3394Z" fill="white"/>
<path d="M81.9546 94.85C81.4881 92.5613 80.605 90.8088 79.9822 90.9356C79.3592 91.0624 79.2324 93.0211 79.6989 95.3098C80.1654 97.5985 81.0485 99.3513 81.6715 99.2242C82.2942 99.0973 82.421 97.139 81.9546 94.85Z" fill="white"/>
<path d="M79.733 95.3117C80.4734 93.0963 80.5851 91.1372 79.9822 90.9356C79.3794 90.7343 78.2904 92.3667 77.5499 94.582C76.8095 96.7977 76.6979 98.7568 77.3008 98.9584C77.9036 99.1598 78.9926 97.5273 79.733 95.3117Z" fill="white"/>
<path d="M77.5784 94.6011C79.3273 93.0527 80.4036 91.4116 79.9822 90.9356C79.5608 90.4596 77.8015 91.329 76.0524 92.8774C74.3036 94.4258 73.2273 96.0669 73.6487 96.5429C74.07 97.0189 75.8294 96.1495 77.5784 94.6011Z" fill="white"/>
<path d="M76.0676 92.9079C78.3566 92.4414 80.1091 91.5586 79.9822 90.9356C79.8551 90.3129 77.8969 90.186 75.6081 90.6525C73.3192 91.119 71.5666 92.0021 71.6937 92.6248C71.8205 93.2478 73.7789 93.3744 76.0676 92.9079Z" fill="white"/>
<path d="M75.606 90.6867C77.8214 91.427 79.7807 91.5384 79.9823 90.9356C80.1836 90.3328 78.551 89.2438 76.3356 88.5035C74.1203 87.7629 72.1609 87.6515 71.9594 88.2543C71.758 88.8572 73.3905 89.9461 75.606 90.6867Z" fill="white"/>
<path d="M76.3168 88.5318C77.8652 90.2807 79.5062 91.357 79.9822 90.9356C80.458 90.5142 79.5886 88.7549 78.0403 87.0061C76.4919 85.2569 74.8508 84.1809 74.3749 84.6023C73.8989 85.0234 74.7684 86.7829 76.3168 88.5318Z" fill="white"/>
<path d="M78.0098 87.0212C78.4763 89.3099 79.3592 91.0624 79.9822 90.9356C80.6049 90.8088 80.7318 88.8505 80.2653 86.5615C79.7988 84.2727 78.9158 82.5202 78.2929 82.6471C77.6701 82.7742 77.5434 84.7325 78.0098 87.0212Z" fill="white"/>
<path d="M78.4896 90.8449C78.4394 91.6692 79.0672 92.3782 79.8912 92.4283C80.7155 92.4784 81.4245 91.8506 81.4746 91.0263C81.5247 90.2023 80.8973 89.4933 80.0729 89.4432C79.2486 89.3931 78.5397 90.0206 78.4896 90.8449Z" fill="#F8A264"/>
<path d="M90.3963 60.7326C89.1598 60.8471 87.9012 60.7146 86.7157 60.345C86.2072 60.1863 85.6923 59.971 85.3417 59.5697C84.9911 59.1682 84.8553 58.5371 85.1544 58.0961C85.4058 57.7254 85.8989 57.5792 86.3441 57.6288C86.7893 57.678 87.1981 57.8903 87.5876 58.1112C88.9548 58.8874 90.2266 59.8189 91.4944 60.7483" fill="#F8A264"/>
<path d="M90.9991 53.8896C90.5676 54.0092 90.2711 54.4295 90.1753 54.8671C90.0796 55.3045 90.1496 55.7597 90.2341 56.1996C90.5315 57.7433 91.007 59.2463 91.481 60.7451L91.8181 59.6996C92.3224 58.5651 92.6002 57.3303 92.6296 56.089C92.6422 55.5562 92.6032 54.9995 92.3353 54.5389C92.0673 54.0783 91.5126 53.7477 90.9991 53.8896Z" fill="#F8A264"/>
<path d="M91.4944 60.7482C90.7435 60.2563 89.7697 59.5305 89.0002 59.019C88.2308 58.5071 87.5409 57.8469 87.1743 56.9988C86.9893 56.5706 86.9162 56.0557 87.1461 55.65C87.5005 55.0231 88.4363 54.9531 89.0562 55.3196C89.6759 55.6861 90.0497 56.3492 90.3803 56.989C91.024 58.2338 91.4093 59.3491 91.4944 60.7482Z" fill="#F8A264"/>
<path d="M91.654 58.275C91.5569 58.3246 91.4435 58.3795 91.3822 58.6771C91.2601 59.2685 91.2354 59.5107 91.2038 60.0281C91.1596 59.6098 90.9403 59.1545 90.7667 58.7715C90.6917 58.606 90.3655 58.3834 90.1888 58.4257C90.0054 58.4693 89.9704 58.7152 89.9976 58.9014C90.0818 59.4779 90.3957 60.0175 90.8549 60.3759C90.3789 60.139 89.8167 60.0802 89.302 60.2132C89.1758 60.2459 89.0358 60.3064 88.9994 60.4316C88.9702 60.5327 89.0237 60.6435 89.1055 60.7102C89.187 60.7768 89.2914 60.8076 89.3936 60.8325C90.0827 61.0003 90.8196 60.9667 91.4905 60.7365C91.8582 60.0135 91.9828 59.8383 92.221 58.6189C92.2381 58.5307 92.2065 58.3974 92.0536 58.2949C91.9629 58.2344 91.7512 58.2255 91.654 58.275Z" fill="#3D907E"/>
<path d="M91.215 60.779C92.7483 64.7321 96.0492 67.8815 100.074 69.2199C100.288 69.291 100.38 68.9531 100.167 68.8822C96.2673 67.5858 93.0389 64.5184 91.5527 60.6861C91.4721 60.4783 91.1335 60.5687 91.215 60.779Z" fill="#3D907E"/>
<path d="M128.086 101.245L94.6845 102.703C83.8838 103.803 73.6063 109.366 66.7801 117.808C80.3821 125.231 103.364 127.523 118.855 127.88C139.626 128.36 157.595 125.572 176.693 114.381C163.531 103.071 145.152 98.1045 128.086 101.245Z" fill="#3D907E"/>
<path d="M79.831 107.125C82.4356 111.866 85.0402 116.606 87.6444 121.347C87.6806 121.412 87.7702 121.45 87.8421 121.427C89.0808 121.04 90.3196 120.652 91.5583 120.264C94.5266 119.334 97.4951 118.405 100.463 117.476C104.04 116.356 107.617 115.236 111.194 114.116C114.259 113.156 117.323 112.197 120.387 111.238C121.811 110.792 123.273 110.406 124.676 109.895C124.758 109.865 124.615 109.885 124.625 109.886C124.663 109.889 124.704 109.899 124.741 109.908C124.939 109.952 125.141 109.983 125.341 110.021C126.175 110.178 127.009 110.336 127.842 110.493C130.772 111.046 133.701 111.598 136.631 112.151C140.303 112.844 143.974 113.536 147.646 114.229C150.938 114.85 154.231 115.471 157.523 116.092C159.312 116.43 161.1 116.767 162.889 117.105C162.973 117.12 163.057 117.136 163.142 117.152C163.226 117.168 163.342 117.13 163.357 117.03C163.832 113.978 164.307 110.926 164.782 107.873C164.849 107.445 164.915 107.016 164.982 106.588C165.017 106.367 164.679 106.272 164.645 106.495C164.17 109.547 163.695 112.599 163.22 115.651C163.153 116.08 163.086 116.509 163.02 116.937C163.091 116.896 163.163 116.855 163.235 116.815C161.966 116.575 160.697 116.336 159.429 116.097C156.392 115.524 153.355 114.951 150.318 114.378C146.635 113.683 142.952 112.988 139.269 112.293C136.051 111.687 132.834 111.08 129.616 110.473C128.017 110.171 126.414 109.797 124.804 109.565C124.572 109.531 124.383 109.62 124.159 109.69C123.423 109.92 122.688 110.151 121.953 110.381C119.19 111.246 116.428 112.111 113.666 112.976C110.098 114.092 106.531 115.209 102.964 116.326C99.7421 117.335 96.5204 118.344 93.299 119.352C91.532 119.905 89.7652 120.459 87.9984 121.012C87.9152 121.038 87.8323 121.064 87.7492 121.09C87.815 121.117 87.8808 121.143 87.9468 121.17C85.3423 116.43 82.7377 111.689 80.1332 106.949C80.0248 106.751 79.7224 106.928 79.831 107.125Z" fill="#AAD0D5"/>
<path d="M123.447 114.23C124.638 118.578 125.471 123.019 125.933 127.503C125.956 127.725 126.306 127.727 126.283 127.503C125.818 122.987 124.984 118.515 123.785 114.137C123.726 113.92 123.388 114.012 123.447 114.23Z" fill="#AAD0D5"/>
<path d="M66.4314 118.292C73.3649 119.194 80.2793 120.236 87.2104 121.156C94.0253 122.061 100.856 122.788 107.711 123.316C110.907 123.562 114.106 123.771 117.307 123.941C118.798 124.021 120.289 124.091 121.78 124.153C123.2 124.212 124.65 124.348 126.069 124.239C127.272 124.147 128.477 123.85 129.659 123.622C134.876 122.617 140.093 121.612 145.31 120.606C151.962 119.325 158.614 118.043 165.265 116.761C167.769 116.278 170.272 115.796 172.776 115.314C174.038 115.07 175.324 114.878 176.575 114.581C176.629 114.569 176.685 114.56 176.739 114.55C176.96 114.507 176.866 114.17 176.646 114.212C173.513 114.816 170.38 115.42 167.247 116.024C160.75 117.276 154.254 118.528 147.757 119.78C142.129 120.864 136.501 121.949 130.873 123.033C129.708 123.258 128.543 123.486 127.377 123.707C125.419 124.079 123.395 123.872 121.417 123.788C118.413 123.661 115.411 123.497 112.411 123.301C105.585 122.854 98.7685 122.247 91.9777 121.416C85.053 120.569 78.1526 119.537 71.2418 118.587C69.639 118.366 68.0357 118.15 66.4314 117.942C66.2087 117.912 66.2108 118.263 66.4314 118.292Z" fill="#1B1C1D"/>
<path d="M126.187 36.3073C125.163 35.5897 120.589 32.1947 118.848 24.9981C118.312 22.7831 118.069 20.1513 118.409 19.6182" stroke="#3D907E" stroke-width="1.33333" stroke-miterlimit="10" stroke-linecap="round" stroke-linejoin="round"/>
<path d="M143.546 42.2884C143.34 39.2681 145.128 36.5053 145.811 33.5561C146.934 28.7037 144.118 22.8519 139.922 20.1681L138.82 19.4729C136.499 18.0088 133.78 17.2469 131.042 17.4278C124.144 17.883 120.459 23.5539 118.313 27.1004C116.926 29.3944 115.219 32.6197 113.56 34.1483C111.587 35.9643 109.311 37.961 106.635 38.1338C106.768 39.4968 107.766 40.7364 109.07 41.1555C110.374 41.5747 111.908 41.1497 112.81 40.1193C111.965 41.0472 111.121 41.9751 110.276 42.903C112.319 45.6221 115.294 47.5258 118.447 48.8021C121.599 50.0783 124.951 50.7735 128.281 51.4629C131.247 52.0767 134.214 52.6904 137.18 53.3045C138.347 53.5458 139.595 53.7813 140.701 53.3367C141.806 52.892 142.598 51.4724 141.954 50.4695C142.568 51.401 142.908 52.5112 142.921 53.627C144.07 53.5937 145.219 53.5607 146.368 53.5276C147.413 49.7415 143.812 46.207 143.546 42.2884Z" fill="#1B1C1D"/>
<path d="M129.782 42.6924C129.674 42.9346 127.725 51.8176 127.725 51.8176L116.473 46.8168L121.436 35.6502L129.782 42.6924Z" fill="#F9AD8E"/>
<path d="M129.347 45.6843C129.347 45.6843 135.943 47.4726 138.996 40.6224C140.04 38.2802 141.124 35.7896 142.595 31.2234C144.177 26.3141 141.519 22.815 136.458 20.6884L135.955 20.477C130.408 18.496 125.741 19.9069 124.074 25.1863L122.523 30.2966C122.523 30.2966 117.383 40.6745 129.338 45.6884" fill="#F9AD8E"/>
<path d="M130.373 30.3349C131.222 30.1974 132.102 30.5679 132.628 31.2404C132.686 31.3155 132.814 31.3009 132.875 31.2404C132.95 31.1676 132.933 31.0671 132.875 30.9929C132.268 30.2159 131.246 29.841 130.28 29.9972C130.186 30.0126 130.135 30.1283 130.158 30.2125C130.184 30.3119 130.28 30.3497 130.373 30.3349Z" fill="#1B1C1D"/>
<path d="M137.785 33.2525C138.634 33.1153 139.514 33.4858 140.039 34.1583C140.098 34.2334 140.225 34.2185 140.287 34.1583C140.361 34.0855 140.345 33.9847 140.287 33.9108C139.68 33.1338 138.658 32.7586 137.691 32.9151C137.598 32.9303 137.547 33.0462 137.569 33.1305C137.596 33.2299 137.692 33.2677 137.785 33.2525Z" fill="#1B1C1D"/>
<path d="M139.157 30.6821C139.852 30.8504 140.517 31.143 141.111 31.5423" stroke="#1B1C1D" stroke-width="4" stroke-miterlimit="10" stroke-linecap="round" stroke-linejoin="round"/>
<path d="M132.055 27.8706C132.72 28.0916 133.373 28.4046 133.974 28.791" stroke="#1B1C1D" stroke-width="4" stroke-miterlimit="10" stroke-linecap="round" stroke-linejoin="round"/>
<path d="M123.038 30.9672C125.472 32.5318 128.329 27.8189 133.841 27.6321C136.816 27.531 140.408 24.8738 142.155 22.381C142.155 22.381 137.644 16.4114 131.254 17.6728C124.863 18.9342 121.79 25.0432 121.79 25.0432L123.038 30.9672Z" fill="#1B1C1D"/>
<path d="M124.138 30.31C123.53 29.514 122.637 28.8739 121.639 28.8996C120.615 28.9257 119.64 29.7046 119.279 30.7121C118.918 31.7195 119.156 32.8896 119.818 33.672C120.479 34.4543 121.522 34.846 122.546 34.7715L124.138 30.31Z" fill="#F9AD8E"/>
<path d="M121.873 30.7863C121.632 30.58 121.254 30.5769 120.985 30.7446C120.716 30.9123 120.556 31.2248 120.53 31.5406C120.503 31.8565 120.598 32.1737 120.753 32.4506C120.886 32.6889 121.076 32.9115 121.333 33.0028C121.642 33.1128 122.009 33.0008 122.228 32.7567C122.448 32.5125 122.522 32.1555 122.451 31.8352C122.38 31.5146 122.174 31.2324 121.909 31.0383" fill="#F79988"/>
<path d="M122.53 32.2765C122.662 31.5599 122.202 30.7538 121.542 30.4657C121.317 30.3674 121.074 30.3271 120.829 30.3408C120.694 30.3486 120.693 30.5587 120.829 30.5508C121.198 30.5298 121.552 30.6474 121.825 30.8997C122.068 31.1248 122.238 31.4275 122.31 31.7506C122.344 31.9035 122.356 32.0656 122.328 32.2207C122.304 32.3529 122.506 32.4095 122.53 32.2765Z" fill="#F35C61"/>
<path d="M129.401 45.7064C128.094 45.1105 126.473 44.014 125.67 42.1616C125.67 42.1616 125.44 45.803 128.701 47.2819L129.401 45.7064Z" fill="#F35C61"/>
<path d="M135.362 32.6953C135.037 33.4284 134.707 34.1684 134.467 34.935C134.355 35.2923 134.256 35.6698 134.266 36.0475C134.273 36.3101 134.343 36.5618 134.404 36.8155C134.457 37.0367 134.517 37.2728 134.514 37.5007C134.504 38.1996 133.655 38.1497 133.169 38.0957C132.945 38.0708 132.947 38.4208 133.169 38.4457C133.798 38.5157 134.708 38.477 134.846 37.6849C134.91 37.3237 134.793 36.932 134.706 36.58C134.571 36.0352 134.636 35.5634 134.804 35.028C135.036 34.2902 135.351 33.5779 135.664 32.872C135.754 32.6679 135.453 32.4895 135.362 32.6953Z" fill="#1B1C1D"/>
<path d="M129.458 37.3246C129.856 37.3198 130.268 37.3198 130.631 37.4833C130.993 37.6468 131.293 38.0212 131.238 38.4154C131.2 38.698 130.996 38.9256 130.802 39.1342C130.663 39.2829 130.516 39.4374 130.321 39.4968C130.004 39.5931 129.66 39.398 129.469 39.1286C129.142 38.67 129.175 37.9893 129.544 37.5645" fill="#F35C61"/>
<path d="M129.085 36.8018C129.136 37.9106 129.847 38.9097 130.867 39.3367C130.955 39.3736 131.059 39.2972 131.083 39.2146C131.111 39.1141 131.047 39.0357 130.96 38.9993C130.091 38.6353 129.478 37.7395 129.435 36.8018C129.425 36.5775 129.075 36.5764 129.085 36.8018Z" fill="#1B1C1D"/>
<path d="M126.958 34.4689C126.629 35.2097 126.963 36.0769 127.703 36.4062C128.444 36.7354 129.311 36.4017 129.641 35.6611C129.97 34.9202 129.636 34.053 128.895 33.7238C128.155 33.3945 127.287 33.7283 126.958 34.4689Z" fill="#F79988"/>
<path d="M138.377 35.9623C138.252 36.3258 137.865 36.5268 137.512 36.412C137.16 36.2975 136.974 35.9108 137.099 35.5474C137.224 35.1842 137.611 34.9826 137.963 35.0969C138.316 35.2117 138.502 35.5992 138.377 35.9623Z" fill="#1B1C1D"/>
<path d="M132 33.2007C131.875 33.5642 131.488 33.7652 131.135 33.6504C130.783 33.5359 130.598 33.1492 130.722 32.7858C130.847 32.4223 131.234 32.221 131.586 32.3352C131.939 32.45 132.125 32.8376 132 33.2007Z" fill="#1B1C1D"/>
<path d="M141.889 22.8945C144.979 25.4114 146.686 29.4272 146.475 33.3959C146.422 34.4092 146.235 35.4069 145.929 36.3737C145.571 37.5041 145.089 38.5935 144.787 39.7413C144.501 40.8226 144.424 41.9216 144.656 43.0206C144.889 44.1196 145.363 45.1495 145.832 46.1636C146.8 48.258 147.982 51.0012 146.434 53.1267C146.301 53.3089 146.605 53.4839 146.736 53.3033C147.995 51.5755 147.537 49.2481 146.774 47.4144C145.84 45.1685 144.498 43.0271 144.974 40.4933C145.204 39.2669 145.705 38.115 146.109 36.9407C146.443 35.9697 146.682 34.979 146.783 33.9562C146.981 31.9561 146.687 29.9071 145.973 28.0303C145.179 25.9417 143.872 24.0607 142.137 22.647C141.963 22.5059 141.714 22.752 141.889 22.8945Z" fill="#1B1C1D"/>
<path d="M106.427 37.0236C108.291 36.8374 110.098 36.2351 111.696 35.254C113.341 34.2437 114.66 32.8611 115.731 31.2645C116.851 29.5949 117.731 27.778 118.865 26.1176C119.96 24.5162 121.328 23.1062 122.896 21.9641C124.633 20.699 126.593 19.7655 128.671 19.2201C128.888 19.1629 128.796 18.825 128.578 18.8824C125.011 19.8187 121.763 21.8985 119.439 24.7646C116.938 27.8483 115.716 31.8679 112.45 34.3196C110.701 35.632 108.602 36.4563 106.427 36.6736C106.205 36.6957 106.202 37.046 106.427 37.0236Z" fill="#1B1C1D"/>
<path d="M107.083 38.7282C109.002 40.4524 111.893 40.7106 114.051 39.2711C115.088 38.5801 115.828 37.5936 116.281 36.44C116.767 35.2027 116.939 33.8741 117.228 32.5839C117.521 31.2768 117.958 30.0042 118.865 28.9892C119.721 28.0319 120.853 27.356 122.049 26.9086C124.946 25.8241 128.08 26.1134 131.111 25.9697C134.488 25.8096 137.77 24.9001 140.718 23.2333C140.914 23.1224 140.737 22.82 140.541 22.9312C137.943 24.4001 135.043 25.3103 132.067 25.5584C129.073 25.8079 125.998 25.445 123.062 26.2203C120.777 26.8237 118.57 28.1308 117.565 30.3568C116.514 32.6833 116.772 35.5155 115.251 37.6429C114.415 38.8111 113.087 39.6203 111.665 39.8238C110.108 40.0464 108.495 39.5273 107.33 38.4807C107.163 38.3306 106.915 38.5773 107.083 38.7282Z" fill="#372C2E"/>
<path d="M141.389 23.3909C142.756 24.596 143.669 26.2609 143.942 28.0641C144.227 29.9423 143.703 31.7937 143.012 33.5252C142.316 35.2722 141.453 36.9569 140.96 38.7792C140.465 40.6092 140.298 42.5292 140.453 44.4178C140.624 46.4881 141.179 48.5094 142.095 50.3737C142.195 50.5758 142.496 50.3986 142.397 50.197C140.667 46.676 140.276 42.5376 141.33 38.7565C142.313 35.2287 144.817 31.9536 144.302 28.1268C144.044 26.2116 143.086 24.421 141.637 23.1437C141.469 22.995 141.22 23.2417 141.389 23.3909Z" fill="#372C2E"/>
<path d="M139.036 118.112C140.477 117.612 142.277 116.731 142.315 115.206C142.353 113.681 141.629 112.212 140.612 111.074C139.596 109.936 138.302 109.086 136.999 108.293C135.658 107.476 134.204 106.611 133.579 105.17C133.178 104.246 133.401 102.481 132.892 101.611C132.387 100.745 131.472 100.056 130.232 99.9429C129.233 99.8522 128.011 99.7169 127.009 99.7626C125.051 99.8516 123.327 100.72 121.375 100.895C121.145 100.915 120.897 100.944 120.729 101.102C120.54 101.28 120.509 101.565 120.491 101.824C120.327 104.131 120.164 106.439 120 108.746C121.743 109.502 123.01 108.778 124.663 109.716C125.224 110.034 125.661 110.529 126.077 111.023C127.715 112.973 130.116 114.964 132.066 116.603C134.016 118.241 136.569 119.386 139.082 118.968" fill="#F9AD8E"/>
<path d="M137.164 118.871C137.024 119.425 136.352 119.657 135.781 119.644C135.393 119.635 134.982 119.542 134.712 119.263C134.519 119.063 134.421 118.792 134.27 118.558C133.848 117.902 129.607 114.94 128.727 113.871" fill="#F9AD8E"/>
<path d="M136.996 118.824C136.839 119.324 136.251 119.478 135.781 119.469C135.517 119.463 135.232 119.417 135.005 119.274C134.754 119.115 134.642 118.852 134.501 118.605C134.289 118.231 133.935 117.96 133.609 117.688C132.5 116.764 131.335 115.909 130.218 114.994C129.745 114.607 129.245 114.217 128.85 113.747C128.705 113.574 128.459 113.823 128.603 113.995C128.989 114.455 129.478 114.838 129.941 115.217C130.587 115.748 131.249 116.26 131.907 116.775C132.488 117.229 133.074 117.679 133.63 118.163C133.786 118.299 133.958 118.438 134.086 118.602C134.335 118.921 134.43 119.313 134.784 119.549C135.549 120.058 137.026 119.898 137.333 118.917C137.4 118.702 137.063 118.61 136.996 118.824Z" fill="#F35C61"/>
<path d="M140.149 118.112C139.839 119.419 138.07 119.218 137.284 118.891C136.499 118.563 135.9 117.821 135.746 116.983" fill="#F9AD8E"/>
<path d="M139.981 118.065C139.752 118.959 138.734 119.048 137.966 118.905C136.939 118.713 136.122 117.981 135.915 116.937C135.871 116.716 135.534 116.81 135.578 117.03C135.813 118.22 136.786 119.068 137.962 119.258C138.902 119.41 140.045 119.222 140.318 118.158C140.374 117.94 140.037 117.847 139.981 118.065Z" fill="#F35C61"/>
<path d="M141.746 116.655C141.668 117.326 141.083 117.876 140.421 118.008C139.758 118.14 139.055 117.894 138.545 117.452C138.035 117.009 137.702 116.39 137.505 115.744" fill="#F9AD8E"/>
<path d="M141.577 116.608C141.443 117.578 140.421 118.04 139.537 117.795C138.556 117.523 137.962 116.621 137.674 115.698C137.607 115.483 137.269 115.575 137.337 115.791C137.673 116.87 138.405 117.916 139.575 118.165C140.594 118.382 141.761 117.803 141.915 116.701C141.946 116.481 141.609 116.386 141.577 116.608Z" fill="#F35C61"/>
<path d="M138.993 109.693C140.291 110.258 141.426 111.194 142.229 112.36C142.748 113.115 143.139 114.022 143.007 114.928C142.875 115.835 142.068 116.68 141.156 116.593C140.405 116.521 139.841 115.89 139.399 115.278C138.957 114.666 138.505 113.988 137.795 113.732" fill="#F9AD8E"/>
<path d="M138.904 109.844C139.985 110.325 140.945 111.037 141.7 111.949C142.45 112.855 143.233 114.216 142.684 115.406C142.463 115.885 142.028 116.315 141.492 116.407C140.893 116.51 140.372 116.141 139.984 115.726C139.279 114.97 138.861 113.965 137.842 113.564C137.632 113.481 137.541 113.819 137.749 113.901C138.713 114.28 139.122 115.349 139.809 116.049C140.414 116.665 141.261 117.001 142.072 116.568C142.872 116.141 143.271 115.216 143.198 114.339C143.113 113.311 142.53 112.383 141.876 111.616C141.115 110.724 140.151 110.018 139.081 109.542C138.877 109.451 138.698 109.753 138.904 109.844Z" fill="#F35C61"/>
<path d="M112.799 93.352C107.213 87.8707 100.54 83.8547 93.4906 83.2826C90.3943 83.0315 87.1542 83.4943 84.502 85.5355C81.8498 87.5767 79.9276 91.4525 80.3278 95.3529C80.5999 98.007 81.891 100.368 83.5251 102.063C85.1592 103.758 87.1208 104.862 89.0962 105.807C94.5996 108.441 122.601 114.036 128.474 114.455L134.124 104.724L112.799 93.352Z" fill="#D94D56"/>
<path d="M87.8312 91.4909C96.1366 91.1053 104.238 96.1831 112.94 102.188L87.8312 91.4909Z" fill="#D94D56"/>
<path d="M87.8312 91.6658C94.8936 91.3584 101.455 94.9183 107.236 98.5902C109.136 99.797 110.999 101.061 112.852 102.339C113.038 102.467 113.213 102.164 113.028 102.037C109.758 99.7813 106.455 97.5526 102.966 95.6446C99.904 93.97 96.6627 92.5218 93.2358 91.7904C91.4606 91.4116 89.6456 91.2369 87.8312 91.3158C87.6069 91.3254 87.6058 91.6756 87.8312 91.6658Z" fill="#1B1C1D"/>
<path d="M99.8188 122.373C98.3774 121.874 96.5773 120.992 96.5398 119.467C96.5022 117.942 97.226 116.473 98.2424 115.335C99.2591 114.197 100.553 113.347 101.856 112.554C103.197 111.737 104.651 110.872 105.276 109.432C105.677 108.507 105.454 106.743 105.962 105.873C106.468 105.006 107.382 104.317 108.622 104.205C109.621 104.114 110.844 103.979 111.846 104.024C113.804 104.113 115.528 104.982 117.48 105.157C117.71 105.177 117.958 105.206 118.126 105.364C118.315 105.542 118.345 105.827 118.364 106.086C118.528 108.393 118.691 110.7 118.855 113.007C117.112 113.763 115.845 113.04 114.192 113.977C113.63 114.295 113.193 114.79 112.778 115.284C111.14 117.235 108.739 119.226 106.789 120.864C104.838 122.503 102.285 123.647 99.7729 123.229" fill="#F9AD8E"/>
<path d="M101.691 123.133C101.831 123.686 102.503 123.918 103.073 123.905C103.462 123.896 103.873 123.804 104.143 123.525C104.336 123.324 104.434 123.053 104.584 122.819C105.007 122.164 109.248 119.201 110.128 118.132" fill="#F9AD8E"/>
<path d="M101.522 123.179C101.793 124.045 102.933 124.231 103.699 123.984C104.412 123.754 104.56 123.027 105.071 122.561C106.196 121.536 107.458 120.656 108.642 119.7C109.196 119.253 109.792 118.805 110.252 118.256C110.396 118.084 110.149 117.836 110.005 118.009C109.666 118.413 109.244 118.752 108.84 119.088C108.268 119.564 107.681 120.023 107.094 120.481C106.534 120.919 105.971 121.355 105.42 121.805C105.092 122.074 104.711 122.347 104.46 122.693C104.338 122.861 104.263 123.058 104.149 123.231C103.949 123.533 103.638 123.674 103.286 123.716C102.768 123.779 102.038 123.657 101.859 123.086C101.792 122.872 101.454 122.963 101.522 123.179Z" fill="#F35C61"/>
<path d="M98.7056 122.373C99.0161 123.681 100.785 123.48 101.571 123.152C102.356 122.824 102.954 122.082 103.109 121.245" fill="#F9AD8E"/>
<path d="M98.5367 122.42C98.8094 123.484 99.9524 123.671 100.893 123.519C102.068 123.33 103.042 122.482 103.277 121.291C103.321 121.071 102.984 120.977 102.94 121.199C102.733 122.243 101.916 122.975 100.889 123.166C100.121 123.31 99.1032 123.22 98.8741 122.327C98.8184 122.109 98.4807 122.201 98.5367 122.42Z" fill="#F35C61"/>
<path d="M97.1085 120.916C97.1866 121.587 97.7721 122.138 98.4343 122.27C99.0967 122.401 99.7995 122.155 100.31 121.713C100.82 121.271 101.153 120.651 101.349 120.005" fill="#F9AD8E"/>
<path d="M96.9399 120.963C97.093 122.062 98.2615 122.647 99.2801 122.427C100.45 122.174 101.181 121.134 101.518 120.052C101.585 119.837 101.248 119.744 101.181 119.959C100.892 120.885 100.299 121.782 99.3179 122.057C98.4348 122.304 97.4122 121.838 97.2773 120.87C97.2465 120.648 96.9091 120.742 96.9399 120.963Z" fill="#F35C61"/>
<path d="M99.8622 113.954C98.5639 114.52 97.4293 115.455 96.6263 116.621C96.1066 117.376 95.7157 118.283 95.8476 119.19C95.9797 120.096 96.787 120.942 97.6989 120.854C98.4505 120.782 99.0133 120.151 99.4554 119.54C99.8978 118.928 100.349 118.25 101.06 117.994" fill="#F9AD8E"/>
<path d="M99.774 113.804C98.8394 114.219 97.9887 114.809 97.2792 115.546C96.5733 116.28 95.9246 117.191 95.7143 118.203C95.527 119.106 95.7613 120.058 96.5053 120.645C97.1941 121.188 98.0641 121.117 98.7369 120.588C99.6228 119.89 100.012 118.593 101.106 118.163C101.313 118.081 101.223 117.742 101.013 117.825C99.9933 118.226 99.5761 119.231 98.8707 119.987C98.4832 120.402 97.9616 120.771 97.3627 120.669C96.8268 120.577 96.3922 120.146 96.171 119.667C95.6222 118.478 96.4042 117.116 97.1543 116.211C97.9101 115.298 98.8693 114.586 99.9507 114.106C100.156 114.014 99.9781 113.713 99.774 113.804Z" fill="#F35C61"/>
<path d="M130.692 93.352C136.278 87.8707 142.951 83.8547 150 83.2826C153.096 83.0315 156.337 83.4943 158.989 85.5355C161.641 87.5767 163.563 91.4525 163.163 95.3529C162.891 98.007 161.6 100.368 159.966 102.063C158.332 103.758 156.37 104.862 154.395 105.807C148.891 108.441 120.89 114.036 115.017 114.455L109.89 103.577L130.692 93.352Z" fill="#D94D56"/>
<path d="M150.074 91.9117C151.606 91.2363 153.295 90.9882 154.957 91.173C155.18 91.198 155.179 90.848 154.957 90.823C153.23 90.631 151.487 90.909 149.898 91.6096C149.692 91.7003 149.87 92.0018 150.074 91.9117Z" fill="#1B1C1D"/>
<path d="M119.256 100.162C117.651 100.644 116.036 101.099 114.444 101.626C112.867 102.149 111.327 102.768 109.802 103.426C109.737 103.454 109.697 103.558 109.722 103.623C111.163 107.458 112.915 111.171 114.963 114.719C115.004 114.791 115.084 114.814 115.161 114.799C117.635 114.341 120.108 113.877 122.58 113.412C126.907 112.598 131.232 111.781 135.551 110.929C137.101 110.623 138.657 110.329 140.196 109.969C140.415 109.917 140.322 109.58 140.103 109.631C136.746 110.416 133.338 111.01 129.954 111.658C125.886 112.438 121.815 113.203 117.744 113.964C116.852 114.13 115.96 114.297 115.068 114.462C115.133 114.489 115.199 114.516 115.265 114.542C113.232 111.02 111.489 107.337 110.059 103.53C110.032 103.596 110.005 103.662 109.979 103.728C111.504 103.071 113.045 102.455 114.623 101.935C116.187 101.42 117.773 100.973 119.349 100.499C119.565 100.435 119.473 100.097 119.256 100.162Z" fill="#1B1C1D"/>
<path d="M152.049 80.0792C150.823 77.929 148.677 76.4229 146.379 75.5031C144.081 74.583 141.612 74.1899 139.167 73.8035L97.0353 78.0758C93.5569 79.0664 91.4211 82.9769 91.7831 86.5754C92.1449 90.174 94.582 93.324 97.6135 95.2966C100.645 97.2686 104.225 98.2136 107.781 98.8711C117.319 100.635 127.197 100.532 136.696 98.5715C141.292 97.6228 145.987 96.1366 149.362 92.8746C152.737 89.6126 154.374 84.1565 152.049 80.0792Z" fill="#F8A264"/>
<path d="M108.148 99.0931C116.045 100.936 124.247 100.377 132.215 99.3339C136.189 98.8137 140.169 98.2094 143.897 96.6683C146.949 95.4069 149.829 93.4405 151.6 90.5948C152.513 89.1279 153.004 87.4087 153.171 85.6979C153.341 83.9591 153.16 82.1514 152.438 80.5481C152.345 80.3429 152.044 80.5207 152.136 80.7245C153.397 83.524 153.034 87.1391 151.638 89.8218C150.121 92.7377 147.255 94.8072 144.31 96.1142C140.757 97.6914 136.917 98.348 133.092 98.8672C129.187 99.3966 125.261 99.8192 121.32 99.9247C116.932 100.042 112.523 99.7548 108.241 98.7557C108.022 98.7045 107.928 99.0419 108.148 99.0931Z" fill="#1B1C1D"/>
<path d="M91.5555 86.3839C93.4522 89.5485 97.2473 90.7161 100.632 91.5045C105.303 92.5929 110.038 93.4612 114.812 93.9405C119.585 94.4199 124.415 94.4958 129.186 93.9389C133.314 93.457 137.395 92.5025 141.271 90.9938C145.08 89.5115 148.685 87.4947 151.852 84.9021C152.256 84.5709 152.652 84.2301 153.042 83.8815C153.21 83.7309 152.962 83.4839 152.794 83.634C149.764 86.3467 146.267 88.4962 142.535 90.1015C138.781 91.7162 134.796 92.7822 130.757 93.3811C126.18 94.0598 121.52 94.1172 116.911 93.7742C112.149 93.4203 107.429 92.6327 102.766 91.6235C99.2658 90.8661 95.142 90.1213 92.65 87.2984C92.3512 86.9601 92.0894 86.5942 91.8576 86.2072C91.742 86.0143 91.4393 86.1901 91.5555 86.3839Z" fill="#DDE3C2"/>
<path d="M131.992 48.1701L118.785 45.4236C118.785 45.4236 105.123 46.769 103.483 48.216C101.843 49.6633 107.632 81.3064 107.632 81.3064H138.407V55.592L131.992 48.1701Z" fill="#F9AD8E"/>
<path d="M132.719 49.5555C131.099 49.0955 129.442 48.7864 127.766 48.6265C127.542 48.6052 127.543 48.9552 127.766 48.9765C129.411 49.1333 131.036 49.4416 132.626 49.8932C132.843 49.9548 132.936 49.6171 132.719 49.5555Z" fill="#F35C61"/>
<path d="M120.671 48.5016C119.662 48.3039 118.654 48.1065 117.645 47.9091C117.425 47.866 117.331 48.2034 117.552 48.2468C118.561 48.4442 119.569 48.6416 120.578 48.839C120.798 48.8821 120.892 48.5447 120.671 48.5016Z" fill="#F35C61"/>
<path d="M137.118 63.6933C136.949 61.948 135.682 60.4041 133.994 59.9164C133.777 59.8536 133.684 60.1913 133.901 60.2538C135.429 60.6956 136.614 62.106 136.768 63.6933C136.789 63.9156 137.139 63.9178 137.118 63.6933Z" fill="#F35C61"/>
<path d="M136.333 55.6315C135.946 57.2258 135.438 58.8174 134.829 60.3406C134.746 60.5497 135.084 60.6407 135.167 60.4338C135.775 58.9103 136.284 57.3188 136.67 55.7245C136.724 55.5058 136.386 55.4125 136.333 55.6315Z" fill="#F35C61"/>
<path d="M123.252 66.4174C123.21 64.5308 124.128 62.6791 125.67 61.5854C125.852 61.4561 125.677 61.1526 125.493 61.2833C123.851 62.4484 122.857 64.4011 122.902 66.4174C122.907 66.6422 123.257 66.6431 123.252 66.4174Z" fill="#F35C61"/>
<path d="M119.23 60.9988C120.005 61.5949 120.565 62.449 120.821 63.3906C120.88 63.6076 121.218 63.5155 121.158 63.2974C120.877 62.2611 120.256 61.3502 119.407 60.6964C119.331 60.6385 119.211 60.6855 119.167 60.7594C119.113 60.849 119.155 60.9414 119.23 60.9988Z" fill="#F35C61"/>
<path d="M132.855 72.2422L111.054 59.6725L107.15 61.4188L105.298 67.6021L106.442 74.5321L133.803 74.065L132.855 72.2422Z" fill="white"/>
<path d="M131.924 48.1978C131.924 48.1978 139.28 49.2629 141.061 52.0604C142.384 54.1383 144.243 59.5064 144.243 59.5064L135.524 60.7516L132.015 48.3742" fill="#F9AD8E"/>
<path d="M148.983 73.5325C147.591 67.765 142.296 54.4746 142.296 54.4746L136.286 58.3876L138.829 74.0804L144.658 84.2674C149.945 82.1288 149.945 77.5183 148.983 73.5325Z" fill="#F9AD8E"/>
<path d="M145.933 61.4343L133.778 72.2576L134.726 74.0804L146.558 63.1327L145.933 61.4343Z" fill="white"/>
<path d="M131.965 75.2926C131.965 75.2926 133.931 76.7595 136.248 76.9096C139.755 77.1364 142.456 75.0672 142.456 75.0672C142.456 75.0672 147.233 72.4842 144.351 66.5977C141.469 60.711 135.416 62.9432 134.741 63.5737C134.065 64.2043 133.348 64.5045 132.992 64.6753C132.636 64.8461 130.705 64.5092 129.437 65.522C128.333 66.4031 127.839 68.3878 127.98 69.5027C128.121 70.6177 128.476 72.1053 128.476 72.1053" fill="#F9AD8E"/>
<path d="M131.965 75.2926C131.965 75.2926 133.931 76.7595 136.248 76.9096C139.755 77.1364 142.456 75.0672 142.456 75.0672C142.456 75.0672 147.233 72.4842 144.351 66.5977C141.469 60.711 135.416 62.9432 134.741 63.5737C134.065 64.2043 133.348 64.5045 132.992 64.6753C132.636 64.8461 130.705 64.5092 129.437 65.522C128.333 66.4031 127.839 68.3878 127.98 69.5027C128.121 70.6177 128.476 72.1053 128.476 72.1053" stroke="#F35C61" stroke-width="1.33333" stroke-miterlimit="10"/>
<path d="M135.486 67.0661C135.865 67.2596 136.074 67.6877 136.027 68.108C135.978 68.5345 135.667 68.8915 135.297 69.0838C134.434 69.5318 133.267 68.9956 133.227 67.9773C133.218 67.7527 132.868 67.7516 132.877 67.9773C132.915 68.9382 133.769 69.6494 134.715 69.5929C135.578 69.5413 136.438 68.8335 136.38 67.912C136.35 67.4377 136.093 66.9833 135.663 66.764C135.463 66.6618 135.285 66.9637 135.486 67.0661Z" fill="#F35C61"/>
<path d="M132.756 64.2401C132.684 64.6302 132.787 65.0236 133.043 65.3271C133.102 65.3977 133.23 65.3926 133.29 65.3271C133.359 65.2523 133.353 65.1546 133.29 65.0796C133.284 65.0723 133.277 65.0647 133.271 65.0572C133.284 65.0734 133.284 65.0737 133.272 65.0577C133.261 65.0421 133.249 65.0261 133.238 65.0099C133.217 64.9774 133.198 64.9435 133.18 64.9088C133.171 64.8914 133.163 64.8738 133.154 64.8561C133.147 64.8377 133.147 64.8382 133.155 64.8575C133.151 64.8483 133.148 64.8393 133.145 64.8301C133.132 64.7959 133.121 64.7609 133.112 64.7256C133.102 64.6901 133.095 64.6543 133.089 64.6181C133.086 64.598 133.086 64.5991 133.089 64.6212C133.088 64.6117 133.087 64.6019 133.086 64.5924C133.084 64.5728 133.083 64.5535 133.082 64.5339C133.08 64.4949 133.081 64.456 133.083 64.4171C133.084 64.3975 133.086 64.3782 133.088 64.3589C133.083 64.4042 133.092 64.3412 133.093 64.3331C133.11 64.2435 133.069 64.1399 132.971 64.1178C132.885 64.0982 132.774 64.1438 132.756 64.2401Z" fill="#1B1C1D"/>
<path d="M132.654 72.3906C131.989 71.4722 130.875 70.9542 129.752 70.8019C128.628 70.6496 127.486 70.826 126.379 71.0701C122.642 71.8933 119.081 73.5003 115.991 75.7568C114.213 77.0551 112.484 78.6153 110.319 79.0107C109.576 79.1462 108.712 79.1871 108.254 79.7871C107.92 80.225 106.962 80.855 107.107 81.3862C107.601 83.1925 108.627 86.0222 110.326 86.8095C112.422 87.7806 116.357 86.8328 118.643 87.1665C120.929 87.5003 123.326 87.3312 125.44 86.3999C127.092 85.6719 129.187 84.63 130.515 83.4061C131.796 82.2254 132.356 80.8284 133.158 79.2814C133.959 77.7344 134.288 75.871 133.702 74.2299" fill="#3D907E"/>
<path d="M102.658 79.0829C103.725 77.6681 105.613 74.8031 106.995 73.6943C108.376 72.5855 110.112 71.8144 111.88 71.937C113.647 72.0596 115.705 72.8588 116.158 74.5713C116.055 74.695 116.261 74.4475 116.158 74.5713L117.278 77.474L111.647 80.8645L104.078 84.0792C103.211 84.3791 102.324 84.6826 101.406 84.6866C100.488 84.6905 99.5173 84.341 99.0074 83.5778C98.6776 83.0844 98.5728 82.479 98.4759 81.8935C98.1954 80.1984 97.9145 78.5033 97.634 76.8082C97.5659 76.3971 97.5072 75.9396 97.7404 75.5944C98.131 75.0165 99.1776 74.7734 99.8549 74.9409C100.638 75.1346 100.954 75.8125 101.439 76.7961C102.155 78.2493 102.658 79.0829 102.658 79.0829Z" fill="#3D907E"/>
<path d="M104.817 76.3958C105.864 74.3851 107.677 72.7096 109.94 72.2327C112.236 71.7489 114.772 72.5743 115.995 74.6544C116.626 75.7288 116.858 77.0143 116.544 78.2275C116.487 78.4459 116.825 78.5389 116.881 78.3208C117.47 76.0497 116.279 73.591 114.244 72.4839C112.013 71.2701 109.23 71.629 107.202 73.0775C106.065 73.8892 105.158 74.9834 104.515 76.2191C104.411 76.4184 104.713 76.5957 104.817 76.3958Z" fill="#1B1C1D"/>
<path d="M108.821 86.2442C112.145 88.2459 116.299 88.24 120.049 87.9438C122.107 87.7811 124.169 87.4263 126.083 86.6258C127.622 85.9815 129.037 85.0519 130.252 83.9087C131.665 82.5795 132.799 80.9637 133.558 79.1781C133.645 78.9731 133.344 78.7948 133.256 79.0014C131.94 82.0971 129.486 84.6619 126.436 86.0891C124.636 86.9316 122.66 87.3393 120.692 87.5364C118.812 87.7245 116.892 87.7889 115.006 87.6543C112.907 87.5045 110.816 87.0366 108.997 85.9418C108.804 85.8253 108.628 86.128 108.821 86.2442Z" fill="#1B1C1D"/>
<path d="M117.656 71.5338C117.874 71.1813 117.409 70.7269 117.215 70.3609C117.02 69.995 116.723 69.6956 116.481 69.3596C115.671 68.2382 115.517 66.6767 116.092 65.4186C116.044 65.1468 116.169 64.8519 116.397 64.6968C116.626 64.5417 116.946 64.535 117.181 64.6803C117.068 64.353 117.403 63.9834 117.748 64.013C118.093 64.0424 118.328 64.1841 118.319 64.5302C118.334 64.3726 118.621 64.2883 118.771 64.3398C118.922 64.3913 119.013 64.6486 118.987 64.9015C118.971 65.0591 119.002 65.2173 118.994 65.3758C118.976 65.7182 119.006 66.0632 119.082 66.3978C119.134 66.6274 119.216 66.8654 119.398 67.0138C119.581 67.1625 119.89 67.1756 120.029 66.9858C120.186 66.7719 120.056 66.4395 120.209 66.2231C120.367 66.0013 120.74 66.057 120.914 66.2662C121.088 66.4754 121.111 66.7685 121.107 67.0404C121.095 67.7387 120.784 68.7546 120.319 69.3638L120.736 70.5284L117.656 71.5338Z" fill="#F9AD8E"/>
<path d="M117.807 71.6223C118.046 71.1194 117.607 70.6832 117.366 70.2727C117.01 69.6679 116.491 69.1891 116.218 68.532C115.952 67.8888 115.861 67.174 115.962 66.4849C115.987 66.313 116.023 66.1427 116.072 65.9758C116.119 65.8123 116.218 65.6496 116.252 65.4861C116.285 65.3257 116.246 65.1636 116.339 65.0101C116.498 64.7447 116.833 64.6974 117.093 64.8315C117.231 64.9026 117.383 64.7856 117.35 64.6338C117.238 64.1306 118.124 64.0156 118.144 64.5302C118.151 64.7284 118.427 64.7668 118.488 64.5767C118.513 64.5299 118.554 64.5058 118.613 64.5044C118.763 64.5509 118.831 64.6472 118.816 64.7934C118.823 64.9057 118.81 65.0255 118.813 65.1384C118.819 65.4321 118.807 65.725 118.841 66.0176C118.887 66.4104 118.964 66.9141 119.31 67.165C119.558 67.3442 119.945 67.3621 120.153 67.1096C120.282 66.9519 120.261 66.7909 120.295 66.6053C120.336 66.3902 120.392 66.1847 120.645 66.2883C120.808 66.355 120.874 66.5148 120.908 66.6764C121.008 67.1479 120.873 67.6883 120.731 68.1366C120.653 68.3819 120.558 68.621 120.437 68.8484C120.358 68.9987 120.153 69.1922 120.144 69.3638C120.134 69.5433 120.288 69.7953 120.347 69.9602C120.421 70.1652 120.494 70.3699 120.567 70.5748C120.608 70.5032 120.649 70.4312 120.69 70.3595C119.663 70.6947 118.636 71.0298 117.609 71.365C117.396 71.4347 117.487 71.7727 117.702 71.7027C118.729 71.3675 119.756 71.0323 120.783 70.6969C120.868 70.6695 120.938 70.5743 120.905 70.4819C120.839 70.2985 120.773 70.1151 120.708 69.932C120.656 69.7883 120.473 69.482 120.492 69.3288C120.48 69.426 120.587 69.2854 120.61 69.249C120.665 69.1611 120.716 69.0704 120.764 68.9777C120.861 68.787 120.945 68.588 121.016 68.3861C121.158 67.9843 121.258 67.5564 121.279 67.1294C121.295 66.7836 121.269 66.3726 121.009 66.1133C120.807 65.9123 120.456 65.8305 120.206 65.9924C120.09 66.0674 120.02 66.1786 119.982 66.3099C119.922 66.5221 119.944 67.1082 119.561 66.9119C119.082 66.6669 119.177 65.6911 119.169 65.2568C119.163 64.9222 119.24 64.3667 118.86 64.1886C118.6 64.0668 118.236 64.213 118.15 64.4837C118.264 64.4994 118.379 64.5148 118.494 64.5302C118.455 63.5068 116.787 63.7154 117.012 64.7268C117.098 64.661 117.183 64.5952 117.269 64.5294C116.694 64.232 116.016 64.5291 115.915 65.1899C115.863 65.5365 115.726 65.8524 115.656 66.2001C115.582 66.572 115.556 66.9536 115.583 67.3316C115.634 68.049 115.862 68.7618 116.267 69.3585C116.499 69.7007 116.793 69.9972 117.008 70.3511C117.16 70.6003 117.649 71.1418 117.504 71.4456C117.408 71.6478 117.71 71.8256 117.807 71.6223Z" fill="#F35C61"/>
<path d="M118.505 66.7265C118.182 66.0822 118.141 65.2686 118.47 64.6187C118.571 64.4182 118.269 64.2407 118.168 64.442C117.779 65.2098 117.821 66.141 118.202 66.9032C118.303 67.1045 118.605 66.9276 118.505 66.7265Z" fill="#F35C61"/>
<path d="M117.36 66.8509C117.151 66.1489 117.149 65.3806 117.382 64.6842C117.454 64.47 117.116 64.3782 117.045 64.591C116.793 65.3428 116.797 66.1864 117.023 66.9438C117.087 67.1591 117.425 67.0676 117.36 66.8509Z" fill="#F35C61"/>
<path d="M116.439 67.0138C116.337 66.7884 116.283 66.5137 116.256 66.2612C116.228 66.0005 116.219 65.714 116.261 65.4654C116.276 65.3722 116.236 65.277 116.139 65.2501C116.055 65.2269 115.939 65.2784 115.924 65.3722C115.873 65.6748 115.874 65.9831 115.909 66.2875C115.944 66.5983 116.008 66.904 116.136 67.1905C116.175 67.2767 116.3 67.2974 116.376 67.2532C116.464 67.2014 116.477 67.1006 116.439 67.0138Z" fill="#F35C61"/>
<path d="M117.194 70.5211C117.214 71.6722 117.237 72.8353 117.52 73.9511C117.804 75.0669 118.378 76.1474 119.31 76.8239C119.961 77.2965 120.744 77.5457 121.52 77.7577C122.954 78.1494 124.448 78.4417 125.921 78.2446C127.394 78.0475 128.855 77.2918 129.593 76.0015C129.917 75.4345 130.09 74.788 130.136 74.1367C130.183 73.4829 130.072 72.7555 129.576 72.3268C129.159 71.9665 128.569 71.8995 128.018 71.8841C126.734 71.8483 125.453 72.0031 124.177 72.158C123.648 72.2221 123.118 72.2862 122.588 72.3506C122.461 72.366 122.326 72.3806 122.208 72.3288C122.111 72.2859 122.038 72.2031 121.97 72.1216C121.346 71.3754 121.301 70.2996 120.948 69.393" fill="#3D907E"/>
<path d="M116.974 71.0108C117.667 73.2004 117.311 76.006 119.202 77.6664C120.119 78.4716 121.292 78.5467 122.456 78.4067C123.756 78.2504 125.06 78.0463 126.343 77.7879C127.812 77.4922 129.254 77.0798 130.613 76.4422C130.817 76.3467 130.639 76.0449 130.436 76.1401C128.192 77.1932 125.724 77.5869 123.291 77.9405C122.091 78.1152 120.747 78.3532 119.684 77.6039C118.851 77.0165 118.376 76.025 118.118 75.0657C117.751 73.7016 117.739 72.2691 117.311 70.9178C117.243 70.7036 116.906 70.7952 116.974 71.0108Z" fill="#1B1C1D"/>
<path d="M121.975 74.5724C122.255 73.8245 122.318 73.0136 122.173 72.2296C122.132 72.0084 121.795 72.1019 121.835 72.3226C121.969 73.0461 121.895 73.7915 121.638 74.4794C121.558 74.6906 121.897 74.7818 121.975 74.5724Z" fill="#1B1C1D"/>
<path d="M140.988 75.3026L125.528 75.9268L120.631 75.782L124.094 82.7039C124.094 82.7039 133.642 83.837 140.36 84.4827C148.46 85.2608 148.788 80.5185 147.455 77.4911C146.263 74.7816 140.988 75.3026 140.988 75.3026Z" fill="#F9AD8E"/>
<path d="M123.88 75.9251C129.493 76.1586 135.104 75.4043 140.717 75.4211C142.194 75.4253 143.674 75.4785 145.142 75.651C145.365 75.6773 145.363 75.327 145.142 75.301C142.431 74.9829 139.684 75.0433 136.962 75.1486C134.063 75.2609 131.168 75.4636 128.268 75.5622C126.806 75.612 125.342 75.6358 123.88 75.5751C123.655 75.5658 123.655 75.9158 123.88 75.9251Z" fill="#F35C61"/>
<path d="M116.082 71.836C115.851 71.5047 115.615 71.1651 115.507 70.7759C115.337 70.1649 115.535 69.3916 116.422 69.3207C116.608 69.3062 116.796 69.3361 116.972 69.3977C117.399 69.547 117.812 69.8085 118.062 70.1854C119.095 71.7422 120.057 73.0307 121.091 74.4867C121.505 75.07 122.156 75.4561 122.87 75.495C123.139 75.5096 123.305 75.4729 123.305 75.4729C123.678 75.1786 123.535 74.4562 123.398 73.9673C123.304 73.631 123.156 73.3118 122.96 73.0229C122.56 72.4321 122.003 71.6974 122.176 70.903C122.254 70.5424 122.506 70.2246 122.864 70.1358C123.374 70.0092 123.776 70.387 124.11 70.7353C125.08 71.7455 126.051 72.7558 127.021 73.7657C127.843 74.6225 128.687 75.5118 129.106 76.6234C129.483 77.6236 129.483 78.7346 129.285 79.7852C129.087 80.8354 132.054 80.6854 131.669 81.6824C131.49 82.147 134.437 83.704 133.992 83.9266C133.622 84.1117 127.229 83.7995 126.82 83.7379C125.154 83.4876 123.05 83.3017 121.536 82.5619C119.293 81.4652 117.516 79.7062 116.142 77.621C115.894 77.2442 115.646 76.8516 115.561 76.4086C115.475 75.9657 115.587 75.4555 115.949 75.185C115.583 74.8185 115.213 74.4447 114.97 73.9875C114.728 73.5305 114.628 72.9697 114.83 72.4928C115.031 72.0163 115.589 71.6794 116.082 71.836Z" fill="#F9AD8E"/>
<path d="M120 76.8435C118.56 75.378 116.546 73.0514 115.358 70.9052L120 76.8435Z" fill="#F9AD8E"/>
<path d="M120.124 76.7197C118.383 74.9437 116.724 72.996 115.509 70.817C115.4 70.6202 115.097 70.7966 115.207 70.9937C116.436 73.1968 118.117 75.1713 119.876 76.9672C120.034 77.1282 120.282 76.8807 120.124 76.7197Z" fill="#F35C61"/>
<path d="M118.476 78.4568C117.332 77.247 116.208 75.7859 115.126 74.5234L118.476 78.4568Z" fill="#F9AD8E"/>
<path d="M118.6 78.3331C117.418 77.0787 116.369 75.7084 115.25 74.3996C115.103 74.2283 114.856 74.4769 115.002 74.6472C116.122 75.9556 117.17 77.3262 118.352 78.5806C118.507 78.745 118.754 78.4972 118.6 78.3331Z" fill="#F35C61"/>
<path d="M135.282 83.7891C132.14 83.7998 128.981 83.5847 125.861 83.2132C124.685 83.0732 123.495 82.9231 122.345 82.6316C120.998 82.2903 119.787 81.3898 118.754 80.4919C117.95 79.7921 117.217 79.0056 116.578 78.1525C116.062 77.4648 114.899 76.1328 115.834 75.3864C115.908 75.3264 115.893 75.201 115.834 75.1388C115.407 74.6947 114.864 74.0149 114.757 73.3919C114.654 72.7846 114.988 71.6733 115.795 71.8774C115.933 71.9124 116.083 71.7511 115.992 71.6204C115.7 71.2004 115.361 70.7316 115.388 70.1946C115.418 69.5968 115.933 69.2779 116.497 69.3876C117.001 69.4856 117.295 69.8956 117.564 70.296C117.832 70.6969 118.11 71.0917 118.402 71.4759C118.879 72.1022 119.391 72.7003 119.884 73.3141C120.462 74.034 120.962 74.8356 121.758 75.3385C122.165 75.5955 122.817 75.9111 123.301 75.6773C123.919 75.3791 123.558 74.471 123.399 74.0043C123.264 73.6061 123.13 73.2357 122.906 72.8759C122.636 72.4435 122.306 72.0319 122.153 71.5386C122.007 71.0671 122.084 70.4035 122.614 70.2024C123.15 69.9989 123.608 70.5883 123.934 70.9271C124.825 71.8558 125.717 72.7843 126.609 73.7131C127.423 74.5609 128.261 75.4303 128.696 76.5425C128.778 76.7497 129.116 76.6595 129.034 76.4492C128.642 75.4496 127.962 74.6323 127.233 73.8595C126.395 72.9716 125.543 72.0977 124.697 71.2174C124.165 70.6633 123.373 69.4979 122.456 69.8866C121.557 70.2677 121.645 71.3854 122.013 72.1053C122.253 72.5757 122.607 72.9803 122.832 73.4591C123.018 73.8553 123.175 74.3366 123.261 74.7667C123.296 74.9403 123.351 75.2214 123.183 75.3457C123.079 75.4225 122.902 75.4045 122.784 75.3872C122.403 75.3306 122.042 75.1262 121.736 74.9008C121.275 74.5617 120.947 74.1101 120.601 73.6624C120.29 73.2609 119.972 72.8664 119.649 72.4741C119.049 71.7447 118.465 71.0086 117.937 70.2246C117.66 69.8138 117.382 69.3739 116.916 69.1575C116.526 68.9757 116.038 68.9617 115.651 69.158C115.242 69.3652 115.037 69.7992 115.036 70.2453C115.034 70.831 115.368 71.3347 115.69 71.797C115.756 71.7113 115.822 71.6254 115.887 71.5397C115.02 71.3202 114.485 72.1647 114.398 72.9243C114.294 73.8435 114.982 74.7572 115.586 75.3864C115.586 75.3038 115.586 75.2211 115.586 75.1388C114.884 75.6997 115.116 76.5332 115.519 77.2161C116.016 78.0584 116.638 78.8449 117.299 79.5639C117.952 80.2732 118.671 80.9203 119.447 81.4917C120.103 81.975 120.822 82.4583 121.582 82.7618C122.574 83.1575 123.709 83.2759 124.758 83.4212C126.368 83.6444 127.987 83.7989 129.608 83.9171C131.496 84.0549 133.389 84.1456 135.282 84.1391C135.507 84.1386 135.508 83.7886 135.282 83.7891Z" fill="#F35C61"/>
<path d="M117.054 83.204L103.462 72.8207L111.068 46.3764C104.941 47.5779 102.106 46.8527 98.9424 54.4746C98.9424 54.4746 95.4825 65.4691 93.7341 71.4224C92.6379 75.1543 93.4385 79.0505 98.0363 82.0081C100.142 83.363 115.023 89.8436 115.023 89.8436L117.054 83.204Z" fill="#F9AD8E"/>
<path d="M99.7368 74.2042C100.684 73.3701 102.003 72.9994 103.247 73.2234C103.467 73.2628 103.561 72.9257 103.34 72.8857C101.966 72.6384 100.538 73.0341 99.4896 73.9567C99.3202 74.106 99.5683 74.3526 99.7368 74.2042Z" fill="#F35C61"/>
<path d="M129.764 84.3181C130.132 84.1512 130.508 83.9793 130.8 83.6998C131.092 83.4204 131.289 83.008 131.205 82.6126C131.112 82.1699 130.687 81.8563 130.243 81.7667C129.8 81.6771 129.312 81.6911 128.904 81.8877C127.028 82.7924 126.091 83.1449 124.228 83.9846C122.868 84.5412 122.199 84.1663 122.017 83.694C121.835 83.2219 122.084 82.6949 122.455 82.35C122.825 82.005 123.603 81.8266 124.056 81.6004C124.509 81.3742 124.665 81.0723 124.905 80.6266C125.144 80.1808 124.709 79.8381 124.277 79.5743C123.918 79.3548 122.234 79.1633 121.828 79.2756C120.478 79.6488 120.604 79.7518 119.254 80.1251C118.109 80.4415 116.963 81.4551 116.035 82.1971C115.201 82.8646 114.72 83.4075 114.354 84.4119C113.987 85.4162 113.808 86.4769 113.63 87.5311C113.547 88.0219 113.474 88.5654 113.743 88.9843C113.966 89.3321 114.373 89.5076 114.756 89.6633C116.316 90.2983 117.907 90.9409 119.586 91.0773C122.075 91.2797 124.513 90.3529 126.759 89.2612C127.165 89.0641 127.578 88.8533 127.878 88.5159C128.178 88.1785 128.342 87.6826 128.169 87.2657C128.67 87.1369 129.18 87.0047 129.621 86.7353C130.063 86.4662 130.435 86.0348 130.506 85.5221C130.576 85.0097 130.268 84.4351 129.764 84.3181Z" fill="#F9AD8E"/>
<path d="M116.177 82.2366C117.275 81.3826 118.384 80.5213 119.643 79.9313C120.903 79.3414 122.343 79.0376 123.696 79.3562C124.302 79.4984 124.971 79.8952 124.973 80.5168C124.975 81.0779 124.425 81.4797 123.895 81.6637C123.365 81.8477 122.773 81.9286 122.348 82.2951C121.852 82.7232 121.755 83.6024 122.26 84.0196C122.821 84.4833 123.656 84.1694 124.315 83.8623C125.774 83.1824 127.285 82.6151 128.83 82.1666C129.192 82.0613 129.566 81.9619 129.941 82.0011C130.316 82.0403 130.781 82.0588 131.062 82.6219C131.33 83.1569 130.8 83.6999 130.423 83.9846L129.671 84.3688C127.555 85.6078 126.23 86.1205 123.927 86.9627" fill="#F9AD8E"/>
<path d="M116.301 82.3603C118.244 80.8486 120.481 79.1557 123.094 79.4299C123.631 79.4861 124.329 79.6292 124.66 80.1072C125.051 80.6742 124.517 81.202 124.014 81.4277C123.168 81.8073 122.021 81.8365 121.785 82.938C121.588 83.855 122.3 84.5231 123.199 84.4127C123.689 84.3525 124.138 84.1344 124.581 83.9311C125.18 83.6565 125.788 83.4014 126.403 83.1659C127.013 82.9327 127.629 82.7185 128.252 82.5236C128.848 82.3371 129.452 82.1134 130.085 82.1909C130.646 82.2598 131.192 82.7101 130.832 83.3084C130.634 83.6391 130.348 83.827 130.018 83.9955C129.117 84.4553 128.254 84.9797 127.338 85.4104C126.213 85.9387 125.046 86.3674 123.88 86.7939C123.67 86.8706 123.761 87.2091 123.973 87.1315C125.071 86.7297 126.17 86.3251 127.236 85.8413C128.174 85.4151 129.049 84.8829 129.964 84.4155C130.571 84.1056 131.46 83.5865 131.294 82.7641C131.075 81.6858 129.707 81.7413 128.904 81.963C127.572 82.3309 126.267 82.8139 125 83.3633C124.413 83.6178 123.819 83.9773 123.176 84.063C122.476 84.1565 121.942 83.6556 122.144 82.9436C122.333 82.2755 123.03 82.1064 123.617 81.9336C124.106 81.79 124.601 81.594 124.918 81.1726C125.56 80.318 124.74 79.494 123.926 79.2378C122.595 78.8189 121.086 79.1216 119.836 79.655C118.443 80.2494 117.24 81.1899 116.054 82.1128C115.876 82.2509 116.125 82.497 116.301 82.3603Z" fill="#F35C61"/>
<path d="M129.979 84.3912C130.088 84.525 130.223 84.7633 130.288 84.9548C130.421 85.3429 130.316 85.701 130.089 86.0322C129.807 86.4441 129.37 86.597 128.942 86.8288C127.494 87.6126 125.986 88.3666 124.4 88.8264C124.184 88.8891 124.276 89.2268 124.493 89.1641C125.389 88.9042 126.253 88.5399 127.099 88.1479C127.94 87.7576 128.786 87.3457 129.585 86.8739C130.037 86.6076 130.376 86.3475 130.589 85.8351C130.835 85.2412 130.617 84.6233 130.227 84.1436C130.084 83.9689 129.838 84.2178 129.979 84.3912Z" fill="#F35C61"/>
<path d="M103.513 73.1119C104.748 69.4554 105.982 65.7989 107.216 62.1424C107.289 61.9285 106.951 61.8366 106.879 62.0494C105.645 65.7059 104.41 69.3624 103.176 73.019C103.104 73.2326 103.441 73.3244 103.513 73.1119Z" fill="#F35C61"/>
<path d="M102.467 48.9714L107.206 62.7967L111.656 60.0474L103.825 47.9245C103.825 47.9245 102.837 47.6661 102.467 48.9714Z" fill="white"/>
<path d="M84.2811 65.9974C87.1816 67.0944 90.7205 65.9806 92.6318 63.3693C89.8659 61.9858 86.2968 63.2044 84.2811 65.9974Z" fill="#3D907E"/>
<path d="M79.4178 24.5999L80.4638 25.1406C80.6568 25.2406 80.6629 25.5139 80.475 25.6225L79.4553 26.2116C79.4099 26.2379 79.373 26.2766 79.3489 26.3233L78.8081 27.3694C78.7083 27.5623 78.4348 27.5688 78.3261 27.3806L77.7371 26.3609C77.7109 26.3155 77.6721 26.2785 77.6255 26.2545L76.5794 25.7138C76.3865 25.6141 76.3801 25.3406 76.5681 25.2319L77.5878 24.6428C77.6333 24.6165 77.6702 24.5778 77.6944 24.5311L78.2351 23.485C78.3348 23.2921 78.6083 23.2859 78.7169 23.4738L79.306 24.4935C79.3324 24.5389 79.371 24.5759 79.4178 24.5999Z" fill="white"/>
<path d="M63.5874 99.7878L64.0136 100.008C64.0923 100.049 64.0949 100.16 64.0183 100.204L63.6029 100.444C63.5843 100.455 63.5691 100.471 63.5593 100.49L63.339 100.916C63.2984 100.995 63.1869 100.997 63.1427 100.921L62.9026 100.505C62.8919 100.487 62.8761 100.472 62.8571 100.462L62.4308 100.241C62.3523 100.201 62.3496 100.089 62.4262 100.045L62.8417 99.8052C62.8603 99.7945 62.8754 99.7786 62.8852 99.7595L63.1055 99.3334C63.1462 99.2547 63.2576 99.2522 63.3019 99.3286L63.5419 99.7441C63.5527 99.7629 63.5684 99.7777 63.5874 99.7878Z" fill="white"/>
<path d="M164.368 57.2824L164.794 57.5028C164.873 57.5434 164.875 57.6548 164.799 57.699L164.383 57.939C164.365 57.9496 164.35 57.9656 164.34 57.9846L164.12 58.4108C164.079 58.4895 163.967 58.492 163.923 58.4153L163.683 58C163.673 57.9813 163.657 57.9662 163.638 57.9564L163.211 57.736C163.133 57.6954 163.13 57.584 163.207 57.5397L163.622 57.2998C163.641 57.2891 163.656 57.2732 163.666 57.2541L163.886 56.828C163.927 56.7493 164.038 56.7468 164.082 56.8235L164.322 57.239C164.333 57.2575 164.349 57.2726 164.368 57.2824Z" fill="white"/>
<path d="M70.6671 103.188L71.7131 103.729C71.906 103.828 71.9123 104.102 71.7243 104.21L70.7047 104.799C70.6592 104.826 70.6222 104.864 70.5982 104.911L70.0574 105.957C69.9577 106.15 69.6841 106.156 69.5755 105.968L68.9865 104.949C68.9603 104.903 68.9214 104.866 68.8747 104.842L67.8288 104.301C67.6358 104.202 67.6295 103.928 67.8175 103.82L68.8371 103.23C68.8826 103.204 68.9196 103.165 68.9438 103.119L69.4844 102.073C69.5841 101.88 69.8577 101.874 69.9663 102.061L70.5553 103.081C70.5816 103.127 70.6204 103.163 70.6671 103.188Z" fill="white"/>
<path d="M166.535 27.2871L167.581 27.8281C167.774 27.9275 167.78 28.2011 167.592 28.3097L166.573 28.8988C166.527 28.9251 166.49 28.9638 166.466 29.0105L165.925 30.0566C165.826 30.2495 165.552 30.256 165.444 30.0678L164.854 29.0483C164.828 29.0027 164.789 28.9657 164.743 28.9417L163.697 28.401C163.504 28.3013 163.498 28.0277 163.685 27.9191L164.705 27.33C164.751 27.3037 164.788 27.265 164.812 27.2183L165.353 26.1722C165.452 25.9793 165.726 25.9731 165.834 26.161L166.423 27.1805C166.45 27.2261 166.488 27.2631 166.535 27.2871Z" fill="white"/>
<path d="M158.042 34.5665C155.269 30.084 156.272 24.3317 160.174 21.0235C159.696 21.2285 159.227 21.4707 158.771 21.7524C153.833 24.8074 152.306 31.2869 155.36 36.2253C158.415 41.1636 164.895 42.6907 169.833 39.6359C170.289 39.354 170.715 39.0423 171.112 38.7061C166.409 40.7204 160.815 39.0493 158.042 34.5665Z" fill="#CDD3B1"/>
<path d="M95.8711 21.8123L96.9172 22.353C97.1101 22.4526 97.1166 22.7265 96.9284 22.8351L95.9089 23.424C95.8635 23.4503 95.8263 23.4889 95.8022 23.5357L95.2615 24.5818C95.1619 24.7747 94.8883 24.7811 94.7797 24.593L94.1905 23.5735C94.1645 23.5279 94.1256 23.4909 94.0788 23.4668L93.033 22.9261C92.8401 22.8264 92.8337 22.5529 93.0215 22.4442L94.0413 21.8551C94.0867 21.8288 94.1239 21.7899 94.148 21.7434L94.6887 20.6973C94.7883 20.5044 95.0619 20.498 95.1705 20.6861L95.7594 21.7056C95.7857 21.7513 95.8246 21.7882 95.8711 21.8123Z" fill="#CDD3B1"/>
<path d="M164.172 50.0335L165.218 50.5741C165.411 50.6738 165.418 50.9474 165.23 51.056L164.21 51.6449C164.164 51.6712 164.128 51.7101 164.103 51.7566L163.563 52.8027C163.463 52.9956 163.19 53.002 163.081 52.8139L162.492 51.7944C162.465 51.749 162.427 51.7118 162.38 51.6877L161.334 51.147C161.141 51.0473 161.135 50.7738 161.323 50.6651L162.343 50.076C162.388 50.05 162.425 50.0111 162.449 49.9646L162.99 48.9185C163.09 48.7256 163.363 48.7191 163.472 48.907L164.061 49.9268C164.087 49.9721 164.126 50.0094 164.172 50.0335Z" fill="#CDD3B1"/>
<path d="M176.655 81.4834L177.701 82.0243C177.894 82.124 177.9 82.3976 177.712 82.5062L176.693 83.095C176.647 83.1214 176.61 83.16 176.586 83.2068L176.045 84.2528C175.946 84.4458 175.672 84.4522 175.563 84.264L174.974 83.2446C174.948 83.1989 174.91 83.162 174.863 83.1379L173.817 82.5972C173.624 82.4975 173.617 82.224 173.805 82.1153L174.825 81.5262C174.871 81.4999 174.908 81.4612 174.932 81.4145L175.472 80.3684C175.572 80.1755 175.846 80.1693 175.954 80.3572L176.543 81.377C176.57 81.4223 176.608 81.4593 176.655 81.4834Z" fill="#CDD3B1"/>
<path d="M66.3938 88.4795L67.4397 89.0201C67.6326 89.1198 67.6391 89.3934 67.451 89.502L66.4314 90.0911C66.3859 90.1175 66.3489 90.1561 66.3248 90.2029L65.7841 91.2487C65.6843 91.4416 65.4108 91.448 65.3022 91.2601L64.7132 90.2404C64.6868 90.195 64.6482 90.1581 64.6014 90.1337L63.5555 89.593C63.3626 89.4933 63.3562 89.2198 63.5442 89.1111L64.5638 88.5223C64.6093 88.496 64.6463 88.4571 64.6704 88.4106L65.2112 87.3645C65.3109 87.1716 65.5844 87.1651 65.693 87.3533L66.282 88.3728C66.3084 88.4184 66.347 88.4554 66.3938 88.4795Z" fill="#CDD3B1"/>
<path d="M74.9212 64.1802L75.9671 64.7209C76.1601 64.8206 76.1664 65.0941 75.9784 65.2028L74.9588 65.7916C74.9133 65.8179 74.8763 65.8569 74.8521 65.9033L74.3115 66.9494C74.2118 67.1423 73.9382 67.1488 73.8296 66.9606L73.2406 65.9411C73.2143 65.8955 73.1755 65.8585 73.1288 65.8345L72.0829 65.2938C71.8899 65.1941 71.8836 64.9205 72.0716 64.8119L73.0912 64.2228C73.1367 64.1965 73.1737 64.1578 73.1977 64.1111L73.7385 63.065C73.8382 62.8723 74.1118 62.8659 74.2204 63.0538L74.8094 64.0735C74.8356 64.1189 74.8745 64.1559 74.9212 64.1802Z" fill="#CDD3B1"/>
<path d="M91.2416 19.8464L91.6053 20.0346C91.6725 20.069 91.6748 20.1642 91.6092 20.202L91.2548 20.407C91.2388 20.4159 91.2259 20.4294 91.2175 20.4456L91.0296 20.8096C90.9949 20.8765 90.8997 20.8788 90.8619 20.8135L90.6572 20.4588C90.648 20.4431 90.6346 20.4302 90.6183 20.4218L90.2546 20.2336C90.1874 20.1989 90.1852 20.104 90.2507 20.0662L90.6052 19.8612C90.6211 19.852 90.6337 19.8386 90.6421 19.8223L90.8303 19.4586C90.865 19.3914 90.9602 19.3894 90.998 19.4547L91.2027 19.8094C91.2119 19.8251 91.2254 19.838 91.2416 19.8464Z" fill="#CDD3B1"/>
<path d="M166.298 47.7156L166.661 47.9038C166.728 47.9382 166.731 48.0334 166.665 48.0712L166.311 48.2762C166.295 48.2852 166.282 48.2986 166.274 48.3148L166.086 48.6788C166.051 48.7458 165.956 48.748 165.918 48.6827L165.713 48.328C165.704 48.3123 165.691 48.2994 165.674 48.291L165.311 48.1029C165.243 48.0682 165.241 47.9732 165.307 47.9354L165.661 47.7305C165.677 47.7212 165.69 47.7078 165.698 47.6916L165.886 47.3278C165.921 47.2606 166.016 47.2587 166.054 47.3239L166.259 47.6787C166.268 47.6944 166.281 47.7072 166.298 47.7156Z" fill="#CDD3B1"/>
<path d="M78.1049 48.5139C78.5048 45.5826 76.0444 42.5804 73.0914 42.3965C70.1386 42.2128 67.3249 44.8868 67.358 47.845C66.5873 47.2438 65.0405 47.1147 64.1526 47.5238C63.2646 47.9326 62.1696 49.467 63.0317 51.2515H83.1499C83.5464 48.8723 79.8817 47.2284 78.1049 48.5139Z" fill="#CDD3B1"/>
<path d="M83.697 38.1679C83.9339 36.43 82.4751 34.65 80.7245 34.5408C78.9735 34.4319 77.3054 36.0172 77.325 37.7714C76.8679 37.415 75.9509 37.3386 75.4244 37.5808C74.898 37.8235 74.2486 38.7332 74.7598 39.7911H86.6882C86.9234 38.3804 84.7504 37.4058 83.697 38.1679Z" fill="#CDD3B1"/>
<path d="M176.177 102.392C176.414 100.654 174.955 98.8736 173.204 98.7647C171.453 98.6557 169.785 100.241 169.805 101.995C169.348 101.639 168.431 101.562 167.904 101.805C167.378 102.047 166.729 102.957 167.24 104.015H179.168C179.403 102.604 177.23 101.63 176.177 102.392Z" fill="#CDD3B1"/>
<path d="M169.77 63.1005C170.007 61.3623 168.548 59.5823 166.798 59.4734C165.047 59.3645 163.379 60.9498 163.398 62.7038C162.941 62.3473 162.024 62.2709 161.498 62.5134C160.971 62.7559 160.322 63.6656 160.833 64.7237L172.761 64.7234C172.997 63.3128 170.824 62.3384 169.77 63.1005Z" fill="#CDD3B1"/>
<path d="M137.277 12.4989C137.514 10.761 136.055 8.98072 134.304 8.8718C132.553 8.76288 130.885 10.3482 130.905 12.1024C130.448 11.746 129.531 11.6696 129.004 11.9118C128.478 12.1542 127.829 13.064 128.34 14.1221H140.268C140.503 12.7114 138.33 11.7368 137.277 12.4989Z" fill="#CDD3B1"/>
<path d="M91.2147 25.6046C91.4519 23.8667 89.9931 22.0864 88.2422 21.9775C86.4914 21.8686 84.8232 23.4539 84.8428 25.2081C84.3858 24.8517 83.4688 24.775 82.9421 25.0175C82.4157 25.2599 81.7664 26.1699 82.2777 27.2278H94.206C94.4412 25.8171 92.2684 24.8425 91.2147 25.6046Z" fill="#DDE3C2"/>
</g>
<defs>
<clipPath id="clip0_1_634">
<rect width="140" height="140" fill="white" transform="translate(51)"/>
</clipPath>
</defs>
</svg>
